<svg id="add_photo_alternate_black_24dp" xmlns="http://www.w3.org/2000/svg" width="41.878" height="41.878" viewBox="0 0 41.878 41.878">
  <path id="Path_7443" data-name="Path 7443" d="M0,0H41.878V41.878H0Z" fill="none"/>
  <path id="Path_7444" data-name="Path 7444" d="M29.919,34.153H5.49V9.725h15.7V6.235H5.49A3.5,3.5,0,0,0,2,9.725V34.153a3.5,3.5,0,0,0,3.49,3.49H29.919a3.5,3.5,0,0,0,3.49-3.49v-15.7h-3.49ZM16.326,28.622,12.906,24.5l-4.8,6.16H27.3l-6.177-8.219ZM33.408,6.235V1h-3.49V6.235H24.684c.017.017,0,3.49,0,3.49h5.235v5.217c.017.017,3.49,0,3.49,0V9.725h5.235V6.235Z" transform="translate(1.49 0.745)" fill="#3368ce"/>
</svg>
