<svg xmlns="http://www.w3.org/2000/svg" width="12.6" height="14" viewBox="0 0 12.6 14"><defs><style>.a{fill:#009788;}</style></defs><path class="a" d="M10.56,8.636H11.5v1.795l1.537.9-.472.827-2.01-1.171V8.636m2.52-3.182H4.26v7H7.2a4.5,4.5,0,0,1-.422-1.909,4.432,4.432,0,0,1,4.41-4.455,4.381,4.381,0,0,1,1.89.426V5.455M4.26,13.727A1.266,1.266,0,0,1,3,12.455V3.545A1.262,1.262,0,0,1,4.26,2.273h.63V1H6.15V2.273h5.04V1h1.26V2.273h.63a1.266,1.266,0,0,1,1.26,1.273V7.427A4.465,4.465,0,0,1,11.19,15,4.361,4.361,0,0,1,8.1,13.727H4.26m6.93-6.268a3.087,3.087,0,1,0,3.056,3.086A3.071,3.071,0,0,0,11.19,7.459Z" transform="translate(-3 -1)"/></svg>