<svg id="cancel-24px_1_" data-name="cancel-24px (1)" xmlns="http://www.w3.org/2000/svg" width="13.647" height="13.647" viewBox="0 0 13.647 13.647">
  <path id="Path_795" data-name="Path 795" d="M0,0H13.647V13.647H0Z" fill="none" opacity="0.87"/>
  <path id="Path_796" data-name="Path 796" d="M7.686,2a5.686,5.686,0,1,0,5.686,5.686A5.681,5.681,0,0,0,7.686,2Zm2.445,8.132a.566.566,0,0,1-.8,0L7.686,8.488,6.043,10.132a.567.567,0,1,1-.8-.8L6.885,7.686,5.241,6.043a.567.567,0,0,1,.8-.8L7.686,6.885,9.33,5.241a.567.567,0,0,1,.8.8L8.488,7.686,10.132,9.33a.577.577,0,0,1,0,.8Z" transform="translate(-0.862 -0.863)" fill="#ff6d85"/>
</svg>
