<svg xmlns="http://www.w3.org/2000/svg" width="24" height="24" viewBox="0 0 24 24">
  <g id="download_for_offline_black_24dp" transform="translate(-0.182)">
    <g id="Group_6440" data-name="Group 6440">
      <rect id="Rectangle_1498" data-name="Rectangle 1498" width="24" height="24" transform="translate(0.182)" fill="none"/>
    </g>
    <g id="Group_6442" data-name="Group 6442" transform="translate(2 2)">
      <g id="Group_6441" data-name="Group 6441">
        <path id="Path_7483" data-name="Path 7483" d="M12,2A10,10,0,1,0,22,12,10.016,10.016,0,0,0,12,2Zm0,18a8,8,0,1,1,8-8A8.011,8.011,0,0,1,12,20ZM14.59,8.59,16,10l-4,4L8,10,9.41,8.59,11,10.17V6h2v4.17ZM17,17H7V15H17Z" transform="translate(-2 -2)" fill="#009788"/>
      </g>
    </g>
  </g>
</svg>
