<svg id="download_for_offline_black_24dp_1_" data-name="download_for_offline_black_24dp (1)" xmlns="http://www.w3.org/2000/svg" width="24" height="24" viewBox="0 0 24 24">
  <g id="Group_6999" data-name="Group 6999">
    <rect id="Rectangle_1761" data-name="Rectangle 1761" width="24" height="24" fill="none"/>
  </g>
  <g id="Group_7001" data-name="Group 7001" transform="translate(2 2)">
    <g id="Group_7000" data-name="Group 7000">
      <path id="Path_8849" data-name="Path 8849" d="M12,2A10,10,0,1,0,22,12,10.016,10.016,0,0,0,12,2Zm0,18a8,8,0,1,1,8-8A8.011,8.011,0,0,1,12,20ZM14.59,8.59,16,10l-4,4L8,10,9.41,8.59,11,10.17V6h2v4.17ZM17,17H7V15H17Z" transform="translate(-2 -2)" fill="#9a9a9a"/>
    </g>
  </g>
</svg>
