<svg xmlns="http://www.w3.org/2000/svg" width="38.79" height="51.485" viewBox="0 0 38.79 51.485">
  <g id="hourglass_2_" data-name="hourglass (2)" transform="translate(-63.123)">
    <g id="Group_6407" data-name="Group 6407" transform="translate(63.123)">
      <path id="Path_7463" data-name="Path 7463" d="M98.387,46.548V41.411c0-6.051-4.675-9.669-9.169-13.2a3.554,3.554,0,0,1-1.411-2.821,4.771,4.771,0,0,1,1.411-3.374c4.372-3.679,9.169-7.149,9.169-13.2V4.937h3.526V0H63.123V4.937h3.526V8.816c0,6.051,4.8,9.521,9.169,13.2a4.771,4.771,0,0,1,1.411,3.374,3.554,3.554,0,0,1-1.411,2.821c-4.493,3.531-9.169,7.149-9.169,13.2v5.137H63.123v4.937h38.79V46.548ZM73.613,13.4a6.767,6.767,0,0,1-2.026-4.584V4.937H93.45V8.816A6.768,6.768,0,0,1,91.424,13.4H73.613ZM93.45,45.172l-8.3-3.241a8.373,8.373,0,0,0-5.256,0l-8.3,3.241V41.411c0-3.423,2.721-5.735,7.161-9.224l.118-.092a8.524,8.524,0,0,0,3.15-5.191,2.305,2.305,0,0,0,1.006,0,8.516,8.516,0,0,0,3.148,5.189l.12.094c4.44,3.488,7.161,5.8,7.161,9.223v3.761Z" transform="translate(-63.123)" fill="#3368ce"/>
    </g>
  </g>
</svg>
