<svg id="inventory_black_24dp" xmlns="http://www.w3.org/2000/svg" width="24" height="24" viewBox="0 0 24 24">
  <g id="Group_6417" data-name="Group 6417">
    <rect id="Rectangle_1490" data-name="Rectangle 1490" width="24" height="24" fill="none"/>
  </g>
  <g id="Group_6419" data-name="Group 6419">
    <g id="Group_6418" data-name="Group 6418">
      <path id="Path_7475" data-name="Path 7475" d="M5,5H7V8H17V5h2v5h2V5a2.006,2.006,0,0,0-2-2H14.82A2.988,2.988,0,0,0,9.18,3H5A2.006,2.006,0,0,0,3,5V19a2.006,2.006,0,0,0,2,2h6V19H5Zm7-2a1,1,0,1,1-1,1A1,1,0,0,1,12,3Z" fill="#2A6761"/>
      <path id="Path_7476" data-name="Path 7476" d="M21,11.5,15.51,17,12.5,14,11,15.5,15.51,20l6.99-7Z" fill="#2A6761"/>
    </g>
  </g>
</svg>
