<svg id="post_add_black_24dp" xmlns="http://www.w3.org/2000/svg" width="24" height="24" viewBox="0 0 24 24">
  <g id="Group_6289" data-name="Group 6289">
    <rect id="Rectangle_1444" data-name="Rectangle 1444" width="24" height="24" fill="none"/>
  </g>
  <path id="Path_8841" data-name="Path 8841" d="M21.1,7.65H5.552A1.733,1.733,0,0,0,3.825,9.378V19.744a1.733,1.733,0,0,0,1.727,1.728H11.6V23.2H9.871v1.728h6.909V23.2H15.052V21.471H21.1a1.733,1.733,0,0,0,1.727-1.728V9.378A1.733,1.733,0,0,0,21.1,7.65Zm0,7.985H17.282V9.384H16.169v6.251H11.511V9.378H21.1ZM5.552,9.378H10.4V19.744H5.552Zm5.959,10.366v-3H21.1v3Z" transform="translate(-1.324 -4.3)" fill="#9a9a9a"/>
</svg>
