<svg xmlns="http://www.w3.org/2000/svg" width="16.919" height="20.782" viewBox="0 0 16.919 20.782">
  <g id="pdf-file" transform="translate(-44.806)">
    <path id="Path_8836" data-name="Path 8836" d="M119.546,297.963c0-.345-.239-.551-.662-.551a1.465,1.465,0,0,0-.351.033v1.107a1.326,1.326,0,0,0,.284.022C119.267,298.574,119.546,298.347,119.546,297.963Z" transform="translate(-70.549 -284.593)" fill="#ff4d4f"/>
    <path id="Path_8837" data-name="Path 8837" d="M194.188,297.681a1.746,1.746,0,0,0-.384.033v2.452a1.533,1.533,0,0,0,.295.017,1.162,1.162,0,0,0,1.268-1.312A1.075,1.075,0,0,0,194.188,297.681Z" transform="translate(-142.576 -284.85)" fill="#ff4d4f"/>
    <path id="Path_8838" data-name="Path 8838" d="M56.472,0H48.125a2.215,2.215,0,0,0-2.212,2.212v8.179H45.7a.891.891,0,0,0-.891.891v5.405a.891.891,0,0,0,.891.891h.216v.991a2.214,2.214,0,0,0,2.212,2.212H59.514a2.214,2.214,0,0,0,2.211-2.212V5.235ZM47.144,12.258a6.986,6.986,0,0,1,1.146-.077,1.8,1.8,0,0,1,1.146.3,1.1,1.1,0,0,1,.4.868,1.2,1.2,0,0,1-.345.89,1.739,1.739,0,0,1-1.218.395,2.2,2.2,0,0,1-.289-.016v1.34h-.84Zm12.37,7.17H48.125a.858.858,0,0,1-.857-.857v-.991H57.885a.891.891,0,0,0,.891-.891V11.282a.891.891,0,0,0-.891-.891H47.269V2.212a.858.858,0,0,1,.857-.856l7.84-.008v2.9A1.534,1.534,0,0,0,57.5,5.78l2.839-.008.032,12.8A.857.857,0,0,1,59.514,19.427ZM50.377,15.94V12.258a7.634,7.634,0,0,1,1.146-.077,2.414,2.414,0,0,1,1.535.4,1.659,1.659,0,0,1,.634,1.413,1.9,1.9,0,0,1-.623,1.518A2.691,2.691,0,0,1,51.34,16,7.338,7.338,0,0,1,50.377,15.94Zm6.07-2.18v.689H55.1v1.507h-.851V12.208h2.291V12.9H55.1v.857Z" fill="#ff4d4f"/>
  </g>
</svg>
