<svg id="post_add_black_24dp" xmlns="http://www.w3.org/2000/svg" width="24" height="24" viewBox="0 0 24 24">
  <g id="Group_6289" data-name="Group 6289">
    <rect id="Rectangle_1444" data-name="Rectangle 1444" width="24" height="24" fill="none"/>
  </g>
  <g id="Group_6291" data-name="Group 6291">
    <g id="Group_6290" data-name="Group 6290">
      <path id="Path_7438" data-name="Path 7438" d="M17,19.22H5V7h7V5H5A2.006,2.006,0,0,0,3,7V19a2.006,2.006,0,0,0,2,2H17a2.006,2.006,0,0,0,2-2V12H17Z" fill="#009788"/>
      <path id="Path_7439" data-name="Path 7439" d="M19,2H17V5H14c.01.01,0,2,0,2h3V9.99c.01.01,2,0,2,0V7h3V5H19Z" fill="#009788"/>
      <rect id="Rectangle_1445" data-name="Rectangle 1445" width="8" height="2" transform="translate(7 9)" fill="#009788"/>
      <path id="Path_7440" data-name="Path 7440" d="M7,12v2h8V12H7Z" fill="#009788"/>
      <rect id="Rectangle_1446" data-name="Rectangle 1446" width="8" height="2" transform="translate(7 15)" fill="#009788"/>
    </g>
  </g>
</svg>
