<svg xmlns="http://www.w3.org/2000/svg" width="19.244" height="13.121" viewBox="0 0 19.244 13.121">
  <g id="visibility_1_" data-name="visibility (1)" transform="translate(0 -74.667)">
    <g id="Group_5239" data-name="Group 5239" transform="translate(0 74.667)">
      <g id="Group_5238" data-name="Group 5238" transform="translate(0 0)">
        <path id="Path_7407" data-name="Path 7407" d="M173.291,170.667a2.624,2.624,0,1,0,2.624,2.624A2.626,2.626,0,0,0,173.291,170.667Z" transform="translate(-163.669 -166.731)" fill="gray"/>
        <path id="Path_7408" data-name="Path 7408" d="M9.622,74.667A10.345,10.345,0,0,0,0,81.227a10.336,10.336,0,0,0,19.244,0A10.341,10.341,0,0,0,9.622,74.667Zm0,10.934A4.374,4.374,0,1,1,14,81.227,4.375,4.375,0,0,1,9.622,85.6Z" transform="translate(0 -74.667)" fill="gray"/>
      </g>
    </g>
  </g>
</svg>
