<svg xmlns="http://www.w3.org/2000/svg" width="60" height="51" viewBox="0 0 60 51"><g transform="translate(-2 -7)"><path d="M12,39H4a2,2,0,0,1-2-2V23a2,2,0,0,1,2-2h8a2,2,0,0,1,0,4H6V35h6a2,2,0,0,1,0,4Zm50-2V23a2,2,0,0,0-2-2H52a2,2,0,0,0,0,4h6V35H52a2,2,0,0,0,0,4h8A2,2,0,0,0,62,37Z" fill="#4e1e71"/><path d="M32,42a13.388,13.388,0,0,1-9.388-3.56,2,2,0,0,1,2.775-2.881A9.42,9.42,0,0,0,32,38a9.42,9.42,0,0,0,6.612-2.44,2,2,0,0,1,2.775,2.881A13.388,13.388,0,0,1,32,42Zm5.475,10.345A22.991,22.991,0,1,0,10.31,37.667a2,2,0,1,0,3.772-1.334A19,19,0,1,1,36.525,48.458,2,2,0,0,0,37,52.4a2.065,2.065,0,0,0,.478-.056Z" fill="#4e1e71"/><path d="M32,58a7,7,0,1,1,7-7A7.009,7.009,0,0,1,32,58Zm0-10a3,3,0,1,0,3,3A3,3,0,0,0,32,48Z" fill="#4e1e71"/></g></svg>