<svg xmlns="http://www.w3.org/2000/svg" width="42" height="56" viewBox="0 0 42 56"><g transform="translate(-11 -4)"><path d="M32,60a2.005,2.005,0,0,1-.856-.192C30.321,59.418,11,50.1,11,36V13a2,2,0,0,1,.853-1.639C12.283,11.061,22.479,4,32,4s19.717,7.061,20.147,7.361A2,2,0,0,1,53,13V36c0,14.1-19.321,23.418-20.144,23.808A2.005,2.005,0,0,1,32,60ZM15,14.079V36c0,10.112,13.435,17.875,17,19.756C35.561,53.871,49,46.09,49,36V14.079C46.476,12.478,38.809,8,32,8s-14.476,4.478-17,6.079Z" fill="#4e1e71"/><path d="M31,39a1.991,1.991,0,0,1-1.161-.372l-7-5a2,2,0,0,1,2.325-3.256l5.459,3.9,6.817-8.521a2,2,0,1,1,3.123,2.5l-8,10A2,2,0,0,1,31,39Z" fill="#4e1e71"/></g></svg>