<svg xmlns="http://www.w3.org/2000/svg" width="60" height="56" viewBox="0 0 60 56"><g transform="translate(-2 -4)"><path d="M39,52a2,2,0,0,1-2,2H21a2,2,0,0,1,0-4H37A2,2,0,0,1,39,52ZM61.838,29.212l-6-14A2,2,0,0,0,54,14H43.173l1.775-7.542A2,2,0,0,0,43,4H12a2,2,0,1,0,0,4H40.475L33.416,38H4a2,2,0,0,0-2,2V52a2,2,0,0,0,2,2H9a2,2,0,0,0,0-4H6V42H35a2,2,0,0,0,1.947-1.542L42.232,18h10.45l5.224,12.19L53.4,50H49a2,2,0,0,0,0,4h6a2,2,0,0,0,1.95-1.557l5-22a1.993,1.993,0,0,0-.112-1.231Z" fill="#4e1e71"/><path d="M23,19H10a2,2,0,0,1,0-4H23a2,2,0,0,1,0,4ZM22,29a2,2,0,0,0-2-2H7a2,2,0,0,0,0,4H20A2,2,0,0,0,22,29ZM43,60a8,8,0,1,1,8-8A8.009,8.009,0,0,1,43,60Zm0-12a4,4,0,1,0,4,4A4,4,0,0,0,43,48ZM15,60a8,8,0,1,1,8-8A8.009,8.009,0,0,1,15,60Zm0-12a4,4,0,1,0,4,4A4,4,0,0,0,15,48Z" fill="#4e1e71"/></g></svg>