<svg xmlns="http://www.w3.org/2000/svg" width="31.704" height="31.728" viewBox="0 0 31.704 31.728"><g transform="translate(0 0)"><path d="M143.087.923l-2.9-.761a4.91,4.91,0,0,0-6.033,3.485L133.42,6.4A15.036,15.036,0,0,1,143.087.923Z" transform="translate(-129.403 0.009)" fill="#d0bde9"/><path d="M125.643,39.33l-.715,2.692a4.91,4.91,0,0,0,3.485,6.005l2.785.743A15.041,15.041,0,0,1,125.643,39.33Z" transform="translate(-124.763 -21.073)" fill="#d0bde9"/><path d="M181.608,9.291,178.48,8.46a15.036,15.036,0,0,1,5.755,10.071l.859-3.249a4.91,4.91,0,0,0-3.485-5.991Z" transform="translate(-153.551 -4.53)" fill="#d0bde9"/><path d="M163.45,59.5l2.989.808a4.91,4.91,0,0,0,6.005-3.485l.845-3.174A15.046,15.046,0,0,1,163.45,59.5Z" transform="translate(-145.496 -28.748)" fill="#d0bde9"/><path d="M143.041,4.54a13.751,13.751,0,1,0,13.751,13.751A13.751,13.751,0,0,0,143.041,4.54ZM135.258,11.4a3.926,3.926,0,1,1,3.114,4.6,3.926,3.926,0,0,1-3.114-4.6Zm5.713,11.881a3.926,3.926,0,1,1-.6-2.948A3.926,3.926,0,0,1,140.971,23.28Zm1.666-3.179a1.745,1.745,0,1,1,1.313-.27,1.745,1.745,0,0,1-1.313.27Zm8.191,5.072a3.926,3.926,0,1,1-3.109-4.594A3.926,3.926,0,0,1,150.828,25.173Zm-2.6-7.277a3.926,3.926,0,1,1,4.594-3.114,3.926,3.926,0,0,1-4.594,3.114Z" transform="translate(-127.189 -2.429)" fill="#d0bde9"/></g></svg>