<svg xmlns="http://www.w3.org/2000/svg" width="27.492" height="30.447" viewBox="0 0 27.492 30.447"><g transform="translate(-100.683 -12.5)"><path d="M128.133,23.589a2.814,2.814,0,0,1-.67.731,5.948,5.948,0,0,1-3.691.983q-.578,0-1.22-.057a86.031,86.031,0,0,0-14.637-.191c-3.377.3-5.87-.094-7.021-1.107a2.452,2.452,0,0,1-.208-.207,3.171,3.171,0,0,0,.021.535c.1.85.211,1.7.367,2.544a59.865,59.865,0,0,0,1.677,6.873A28.148,28.148,0,0,0,105,39.352,4.136,4.136,0,0,0,106.39,41a12.59,12.59,0,0,0,1.476.764,19.05,19.05,0,0,0,6.634,1.179c.584-.048,1.3-.112,2.009-.166a16.146,16.146,0,0,0,4.228-.9,4.185,4.185,0,0,0,2.005-1.492,18.853,18.853,0,0,0,2.183-4.108,54.236,54.236,0,0,0,2.883-9.374,11.025,11.025,0,0,0,.351-3.066C128.155,23.757,128.145,23.672,128.133,23.589Z" fill="#fff"/><path d="M127.249,21.966a7.651,7.651,0,0,0-3.025-1.48c-1.4-.362-2.82-.616-4.234-.91a.6.6,0,0,1-.489-.4c-.581-1.369-1.157-2.743-1.807-4.08a5.552,5.552,0,0,0-1.672-2.1,2.153,2.153,0,0,0-1.452-.492,2.729,2.729,0,0,0-1.641.8,9.264,9.264,0,0,0-1.9,2.67c-.522,1.05-.966,2.139-1.46,3.2a.6.6,0,0,1-.338.326c-.842.161-1.7.256-2.535.43a14.613,14.613,0,0,0-4.508,1.57,2.875,2.875,0,0,0-1.393,1.6,1.726,1.726,0,0,0,.4.5c1.04.916,3.475,1.279,6.678,1q.576-.051,1.178-.09a14.723,14.723,0,0,1,1.7-5.158l.773-.069a16.571,16.571,0,0,0-1.81,5.188,85.436,85.436,0,0,1,9.609.079,16.575,16.575,0,0,0-1.633-5.215h.764a15.455,15.455,0,0,1,1.525,5.257q1.289.085,2.616.2c1.424.126,3.37.088,4.558-.807a2,2,0,0,0,.795-1.084A2.431,2.431,0,0,0,127.249,21.966Zm-15.636-2.717a.187.187,0,0,1,0-.093,9.821,9.821,0,0,1,1.856-2.811,1.487,1.487,0,0,1,2.427.058,9.245,9.245,0,0,1,1.633,2.651.8.8,0,0,1,.039.2Zm7.1.219a1.6,1.6,0,0,1-.3-.341,13.709,13.709,0,0,0-1.626-2.853,4.564,4.564,0,0,0-.8-.806,2.2,2.2,0,0,0-3.031.293,8.91,8.91,0,0,0-1.578,2.183c-.215.389-.407.791-.6,1.193a.328.328,0,0,1-.507.183c.186-.449.365-.9.558-1.341a17.745,17.745,0,0,1,1.8-3.279,4.065,4.065,0,0,1,1.352-1.3,1.42,1.42,0,0,1,1.667.188,5.071,5.071,0,0,1,1.419,1.8c.615,1.269,1.161,2.571,1.734,3.86a.427.427,0,0,1,.015.124Z" fill="#fff"/></g></svg>