<svg xmlns="http://www.w3.org/2000/svg" width="22.56" height="30.305" viewBox="0 0 22.56 30.305"><g transform="translate(-310.685 -12)"><path d="M327.672,27.086a7.959,7.959,0,0,1,1.766,9.471c4.254-7.063,2.649-12.6,2.649-12.6-9.15-4.575-14.287-.642-14.287-.642a15,15,0,0,1,9.872,3.771Z" transform="translate(-1.404 -1.923)" fill="#fff"/><path d="M315.914,29.141a7.845,7.845,0,0,1,9.471-1.766c-6.983-4.254-12.521-2.649-12.521-2.649-4.495,9.23-.642,14.367-.642,14.367a14.343,14.343,0,0,1,3.692-9.952Z" transform="translate(0 -2.453)" fill="#fff"/><path d="M318.048,40.771a7.959,7.959,0,0,1-1.766-9.471c-4.174,7.063-2.649,12.6-2.649,12.6,9.15,4.575,14.287.642,14.287.642a14.225,14.225,0,0,1-9.872-3.771Z" transform="translate(-0.528 -3.809)" fill="#fff"/><path d="M333.643,28.8a15.049,15.049,0,0,1-3.772,9.952,7.846,7.846,0,0,1-9.471,1.766c6.983,4.254,12.521,2.649,12.521,2.649C337.5,33.937,333.643,28.8,333.643,28.8Z" transform="translate(-1.917 -3.316)" fill="#fff"/><path d="M331.083,12c-6.581.161-6.983,5.859-6.983,5.859C330.681,18.421,331.083,12,331.083,12Z" transform="translate(-2.648)" fill="#fff"/></g></svg>