<svg xmlns="http://www.w3.org/2000/svg" width="30.026" height="24.343" viewBox="0 0 30.026 24.343"><g transform="translate(-99.822 -16.052)"><path d="M129.847,23.759a8.6,8.6,0,0,0-1.157-3.842c-1.038-1.763-3.173-3.865-7.452-3.865a8.213,8.213,0,0,0-6.4,2.691,8.213,8.213,0,0,0-6.4-2.691c-6.174,0-8.531,4.609-8.61,7.707v10.38a2.175,2.175,0,1,0,4.349,0V23.865c.049-.851.509-3.464,4.261-3.464a3.955,3.955,0,0,1,4.228,4.084V33.22a2.175,2.175,0,0,0,4.349,0V24.485a3.954,3.954,0,0,1,4.228-4.084c3.774,0,4.217,2.644,4.261,3.454V34.139a2.175,2.175,0,1,0,4.349,0V23.759Z" fill="#fff"/><path d="M108.416,36.756a7.481,7.481,0,0,0,12.838,0S114.835,42.2,108.416,36.756Z" fill="#fff"/></g></svg>