<svg xmlns="http://www.w3.org/2000/svg" width="37.017" height="37.071" viewBox="0 0 37.017 37.071"><g transform="translate(0 0)"><path d="M29.615,48.226a3.646,3.646,0,0,0-2.645-1.213,3.77,3.77,0,0,0-2.676,1.2l-2.472,2.465c-.2-.11-.407-.211-.6-.313-.282-.141-.548-.274-.775-.415a26.872,26.872,0,0,1-6.439-5.868,15.853,15.853,0,0,1-2.113-3.333c.642-.587,1.236-1.2,1.815-1.784.219-.219.438-.446.657-.665a3.59,3.59,0,0,0,0-5.414L12.23,30.755c-.243-.243-.493-.493-.728-.743-.469-.485-.962-.986-1.471-1.455a3.7,3.7,0,0,0-2.621-1.15,3.833,3.833,0,0,0-2.66,1.15l-.016.016-2.66,2.684a5.724,5.724,0,0,0-1.7,3.638,13.716,13.716,0,0,0,1,5.806,33.688,33.688,0,0,0,5.985,9.984,36.82,36.82,0,0,0,12.26,9.6,19.1,19.1,0,0,0,6.885,2.034c.164.008.336.016.493.016a5.9,5.9,0,0,0,4.515-1.94c.008-.016.023-.023.031-.039a17.788,17.788,0,0,1,1.369-1.416c.336-.321.681-.657,1.017-1.009a3.9,3.9,0,0,0,1.181-2.707,3.76,3.76,0,0,0-1.2-2.684Zm2.8,8.239c-.008,0-.008.008,0,0-.305.329-.618.626-.955.955a20.575,20.575,0,0,0-1.51,1.565,3.772,3.772,0,0,1-2.942,1.244c-.117,0-.243,0-.36-.008a16.97,16.97,0,0,1-6.1-1.831A34.755,34.755,0,0,1,9,49.345a31.764,31.764,0,0,1-5.633-9.381,11.172,11.172,0,0,1-.876-4.9,3.592,3.592,0,0,1,1.08-2.324l2.668-2.668a1.779,1.779,0,0,1,1.189-.556,1.674,1.674,0,0,1,1.142.548l.023.023c.477.446.931.908,1.408,1.4.243.25.493.5.743.759l2.136,2.136a1.493,1.493,0,0,1,0,2.425c-.227.227-.446.454-.673.673-.657.673-1.283,1.3-1.964,1.909-.016.016-.031.023-.039.039A1.6,1.6,0,0,0,9.8,41.208l.023.07A17.149,17.149,0,0,0,12.348,45.4l.008.008A28.717,28.717,0,0,0,19.3,51.731a10.683,10.683,0,0,0,.962.524c.282.141.548.274.775.415.031.016.063.039.094.055a1.7,1.7,0,0,0,.775.2,1.673,1.673,0,0,0,1.189-.54L25.774,49.7a1.77,1.77,0,0,1,1.181-.587,1.594,1.594,0,0,1,1.127.571l.016.016,4.311,4.311A1.547,1.547,0,0,1,32.417,56.465Z" transform="translate(-0.344 -25.262)" fill="#4e1e71"/><path d="M245.813,88.021a10.07,10.07,0,0,1,8.2,8.2,1.05,1.05,0,0,0,1.041.876,1.4,1.4,0,0,0,.18-.016,1.057,1.057,0,0,0,.868-1.221,12.176,12.176,0,0,0-9.921-9.921,1.062,1.062,0,0,0-1.221.861A1.045,1.045,0,0,0,245.813,88.021Z" transform="translate(-225.806 -79.202)" fill="#4e1e71"/><path d="M266.339,16.353A20.049,20.049,0,0,0,250,.016a1.055,1.055,0,1,0-.344,2.081,17.908,17.908,0,0,1,14.6,14.6,1.05,1.05,0,0,0,1.041.876,1.4,1.4,0,0,0,.18-.016A1.037,1.037,0,0,0,266.339,16.353Z" transform="translate(-229.338 0)" fill="#4e1e71"/></g></svg>