<svg xmlns="http://www.w3.org/2000/svg" width="30.503" height="36.29" viewBox="0 0 30.503 36.29"><g transform="translate(-3.1 -1.543)"><path d="M18.352,37.833a1.268,1.268,0,0,1-.908-.377L7.573,27.585a15.252,15.252,0,1,1,21.558,0L19.26,37.456A1.268,1.268,0,0,1,18.352,37.833Zm0-33.708A12.681,12.681,0,0,0,9.389,25.769l8.962,8.962,8.962-8.962A12.681,12.681,0,0,0,18.352,4.125Z" transform="translate(0 0)" fill="#4e1e71"/><path d="M14.676,19.1A6.426,6.426,0,1,1,21.1,12.676,6.426,6.426,0,0,1,14.676,19.1Zm0-10.282a3.856,3.856,0,1,0,3.856,3.856A3.856,3.856,0,0,0,14.676,8.821Z" transform="translate(3.675 3.359)" fill="#4e1e71"/></g></svg>