<svg xmlns="http://www.w3.org/2000/svg" width="300" height="210.448" viewBox="0 0 300 210.448">
  <g id="Group_1011" data-name="Group 1011" transform="translate(4099 -3877)">
    <path id="pic" d="M10,0H290a10,10,0,0,1,10,10V210.448a0,0,0,0,1,0,0H0a0,0,0,0,1,0,0V10A10,10,0,0,1,10,0Z" transform="translate(-4099 3877)" fill="#ebebeb"/>
    <g id="image" transform="translate(-3987.99 3943.236)" opacity="0.36">
      <g id="Group_1006" data-name="Group 1006">
        <g id="Group_1005" data-name="Group 1005">
          <path id="Path_200" data-name="Path 200" d="M70.8,0H7.324A7.324,7.324,0,0,0,0,7.324V70.8a7.324,7.324,0,0,0,7.324,7.324H70.8A7.324,7.324,0,0,0,78.123,70.8V7.324A7.324,7.324,0,0,0,70.8,0ZM73.24,70.8A2.441,2.441,0,0,1,70.8,73.24H7.324A2.441,2.441,0,0,1,4.883,70.8V7.324A2.441,2.441,0,0,1,7.324,4.883H70.8A2.441,2.441,0,0,1,73.24,7.324Z" fill="#3b5286"/>
          <path id="Path_201" data-name="Path 201" d="M120.985,245.715a2.441,2.441,0,0,0-3.442,0l-5.615,5.615-10.473-10.473a2.441,2.441,0,0,0-3.442,0L80.923,257.946a2.441,2.441,0,0,0,1.709,4.15h48.827a2.441,2.441,0,0,0,1.733-4.175Z" transform="translate(-67.984 -203.505)" fill="#3b5286"/>
          <circle id="Ellipse_84" data-name="Ellipse 84" cx="7.5" cy="7.5" r="7.5" transform="translate(39.061 19.061)" fill="#3b5286"/>
        </g>
      </g>
    </g>
  </g>
</svg>
