<svg xmlns="http://www.w3.org/2000/svg" width="763.314" height="444.427" viewBox="0 0 763.314 444.427">
  <g id="Group_1224" data-name="Group 1224" transform="translate(-43.128 -54.937)">
    <g id="Group_1204" data-name="Group 1204" transform="translate(281.627 54.937)">
      <path id="Path_1933" data-name="Path 1933" d="M261.426,83.628c-.263,2.037-8.461-3.661-7-6.983s9.629-8.293,9.629-8.293l4.99,7.68S261.768,80.976,261.426,83.628Z" transform="translate(-254.249 -53.197)" fill="#d77953"/>
      <g id="Group_1203" data-name="Group 1203" transform="translate(3.613)">
        <ellipse id="Ellipse_103" data-name="Ellipse 103" cx="13.087" cy="10.278" rx="13.087" ry="10.278" transform="matrix(0.777, -0.629, 0.629, 0.777, 0, 16.642)" fill="#d77953"/>
        <path id="Path_1934" data-name="Path 1934" d="M274.5,75.825a1.07,1.07,0,1,0,1.425-.512A1.069,1.069,0,0,0,274.5,75.825Z" transform="translate(-255.249 -52.308)"/>
        <path id="Path_1935" data-name="Path 1935" d="M271.071,70.478a1.158,1.158,0,1,0,1.542-.552A1.159,1.159,0,0,0,271.071,70.478Z" transform="translate(-255.695 -53.007)"/>
        <path id="Path_1936" data-name="Path 1936" d="M273.881,74.335c-1.031,1.351-2.274,3.04-2.274,3.04a2.591,2.591,0,0,1-2.336-1.826c.628.67,1.458,1.254,2.4.531S273.881,74.335,273.881,74.335Z" transform="translate(-255.914 -52.421)" fill="#c26240"/>
        <g id="Group_1199" data-name="Group 1199" transform="translate(21.191 21.501)">
          <path id="Path_1937" data-name="Path 1937" d="M276.218,74.48a.41.41,0,0,0,.28.294,1.2,1.2,0,0,1,.672.567,1.341,1.341,0,0,1-.112,1.1.411.411,0,0,0,.747.342,2.1,2.1,0,0,0,.11-1.792,2.026,2.026,0,0,0-1.183-1.008.411.411,0,0,0-.514.494Z" transform="translate(-276.206 -73.969)" fill="#242241"/>
        </g>
        <g id="Group_1200" data-name="Group 1200" transform="translate(16.229 15.136)">
          <path id="Path_1938" data-name="Path 1938" d="M273.841,70.609a.412.412,0,0,1-.185-.363,1.194,1.194,0,0,0-.314-.821,1.342,1.342,0,0,0-1.079-.256.411.411,0,0,1-.077-.818,2.1,2.1,0,0,1,1.727.486,2.02,2.02,0,0,1,.561,1.449.41.41,0,0,1-.43.389A.405.405,0,0,1,273.841,70.609Z" transform="translate(-271.813 -68.335)" fill="#242241"/>
        </g>
        <path id="Path_1939" data-name="Path 1939" d="M265.3,68.054a8.514,8.514,0,0,0,7.469-3.661c1.192,1.359,1,2.262,1,2.262a3.935,3.935,0,0,0,3.063-1.512c3.065,2.463,1.919,5.227,2.875,8.491,1.309,4.469,5.663,8.413,10.713,6.11a.943.943,0,0,0,.021-1.709,4.156,4.156,0,0,1-1.855-1.777,4.445,4.445,0,0,0,2.707-.408.943.943,0,0,0-.141-1.717c-1.148-.424-2.66-1.568-3.708-4.556-.7-1.989-.186-7.754-2.222-9.992-1.664-1.828-4.4-2.464-7.362-1.711a7.587,7.587,0,0,0-9.452-2.094c-5.855,2.7-6.536,15.22-6.536,15.22S263.927,68.036,265.3,68.054Z" transform="translate(-256.874 -54.937)" fill="#242241"/>
        <path id="Path_1940" data-name="Path 1940" d="M269.142,79.047a.315.315,0,0,0,.338-.471,22.291,22.291,0,0,1-2.453-5.393.315.315,0,0,0-.576-.055,3.927,3.927,0,0,0,2.691,5.92Z" transform="translate(-256.354 -52.599)" fill="#fff"/>
        <g id="Group_1202" data-name="Group 1202" transform="translate(8.255 8.935)">
          <path id="Path_1941" data-name="Path 1941" d="M269.791,65.906a2.569,2.569,0,1,1-2.538-3.06A2.84,2.84,0,0,1,269.791,65.906Z" transform="translate(-264.755 -62.846)" fill="#d77953"/>
          <g id="Group_1201" data-name="Group 1201" transform="translate(1.557 1.508)">
            <path id="Path_1942" data-name="Path 1942" d="M266.345,67.339a.376.376,0,0,0,.167.035,1.682,1.682,0,0,0,1.7-1.174,1.791,1.791,0,0,0-.687-1.958.372.372,0,1,0-.41.62,1.06,1.06,0,0,1,.382,1.132.951.951,0,0,1-1,.636.372.372,0,0,0-.15.708Z" transform="translate(-266.133 -64.181)" fill="#c26240"/>
          </g>
        </g>
      </g>
    </g>
    <path id="Path_1943" data-name="Path 1943" d="M751.44,239.106H615.4q1.913,0,3.779-.166c-18.4-1.613-32.749-14.873-32.749-30.994h0c0-16.121,14.35-29.382,32.749-30.995q-1.864-.163-3.779-.165c20.174,0,36.528-13.952,36.528-31.161h0c0-17.208-16.354-31.16-36.528-31.16H146.835c-20.174,0-36.528,13.952-36.528,31.16h0c0,17.21,16.354,31.161,36.528,31.161h-9.321c20.174,0,36.528,13.95,36.528,31.16h0c0,17.21-16.354,31.16-36.528,31.16H98.131c-30.377,0-55,21.006-55,46.919h0c0,25.914,24.626,46.92,55,46.92h39.386c20.173,0,36.525,13.952,36.525,31.16h0c0,17.21-16.354,31.16-36.528,31.16h9.321c-20.174,0-36.528,13.95-36.528,31.16h0c0,17.21,16.354,31.16,36.528,31.16H615.4c20.174,0,36.528-13.95,36.528-31.16h0c0-17.21-16.354-31.16-36.528-31.16q1.913,0,3.779-.166c-18.4-1.613-32.749-14.873-32.749-30.994h0c0-16.122,14.35-29.382,32.749-31q-1.862-.163-3.775-.165H751.44c30.377,0,55-21.006,55-46.92h0C806.442,260.112,781.817,239.106,751.44,239.106Z" transform="translate(0 7.72)" fill="#e3e8fd"/>
    <g id="Group_1205" data-name="Group 1205" transform="translate(79.915 318.34)">
      <path id="Path_1944" data-name="Path 1944" d="M235.035,439.776s-14.216,20.813-35.209,5.7-18.3-10.735-44.418-10.407-21.081-26.961-15.2-34.1,2.939-20.993-13.855-17.214S91.5,387.113,98.22,366.959s-11.336-25.192-18.055-41.567-6.3-34.848,4.2-36.947,20.573,14.275,29.39,13.855,13.016-15.907,23.513-14.042,10.582,8.163,18.1,24.958,15.913,15.535,26.409,11.757,20.574,1.26,26.032,15.954,7.417,33.17,11.9,34.848S246.732,415.185,235.035,439.776Z" transform="translate(-75.692 -288.103)" fill="#629454"/>
      <path id="Path_1945" data-name="Path 1945" d="M107.9,315.166s93.09,47.8,122.96,121.1" transform="translate(-71.516 -284.594)" fill="none" stroke="#341f78" stroke-linecap="round" stroke-linejoin="round" stroke-width="1"/>
      <path id="Path_1946" data-name="Path 1946" d="M146.513,348.722c4.826,5.328,6.726,11.469,4.245,13.717s-8.406-.25-13.231-5.578-6.726-11.469-4.245-13.717S141.688,343.393,146.513,348.722Z" transform="translate(-68.365 -281.073)" fill="#3e6a45"/>
      <path id="Path_1947" data-name="Path 1947" d="M133.41,314.67c2.459,2.459,3.125,5.783,1.484,7.422s-4.963.975-7.422-1.484-3.125-5.783-1.484-7.422S130.951,312.21,133.41,314.67Z" transform="translate(-69.287 -284.967)" fill="#3e6a45"/>
      <path id="Path_1948" data-name="Path 1948" d="M182.031,343.412c5.124,5.124,7.118,11.438,4.453,14.1s-8.978.671-14.1-4.453-7.118-11.438-4.453-14.1S176.907,338.289,182.031,343.412Z" transform="translate(-63.884 -281.661)" fill="#3e6a45"/>
      <ellipse id="Ellipse_104" data-name="Ellipse 104" cx="12.596" cy="18.999" rx="12.596" ry="18.999" transform="matrix(0.774, -0.634, 0.634, 0.774, 91.435, 117.169)" fill="#3e6a45"/>
    </g>
    <g id="Group_1206" data-name="Group 1206" transform="translate(163.053 273.859)">
      <path id="Path_1949" data-name="Path 1949" d="M222.934,443.712S194.8,381.2,167.512,338.979s-23.933-85.886,10.077-90.084S240.988,319.852,222.934,443.712Z" transform="translate(-149.286 -248.728)" fill="#4958ed"/>
      <path id="Path_1950" data-name="Path 1950" d="M181.479,274.521s40.219,73.9,37.281,165.846" transform="translate(-145.112 -245.383)" fill="none" stroke="#341f78" stroke-linecap="round" stroke-linejoin="round" stroke-width="1"/>
      <path id="Path_1951" data-name="Path 1951" d="M178.253,287.772c2.575,7.124,1.716,13.963-1.919,15.277s-8.668-3.4-11.243-10.521-1.715-13.964,1.919-15.277S175.679,280.647,178.253,287.772Z" transform="translate(-147.429 -245.058)" fill="#3e50ce"/>
      <path id="Path_1952" data-name="Path 1952" d="M190.159,317.594c1.613,4.462,1.054,8.755-1.249,9.588s-5.479-2.111-7.091-6.574-1.053-8.755,1.251-9.588S188.547,313.13,190.159,317.594Z" transform="translate(-145.187 -240.668)" fill="#3e50ce"/>
      <ellipse id="Ellipse_105" data-name="Ellipse 105" cx="5.713" cy="13.506" rx="5.713" ry="13.506" transform="matrix(0.94, -0.34, 0.34, 0.94, 50.834, 46.438)" fill="#3e50ce"/>
      <path id="Path_1953" data-name="Path 1953" d="M197.984,346.067c.966,2.276.644,4.591-.718,5.168s-3.249-.8-4.215-3.077-.643-4.592.72-5.169S197.019,343.79,197.984,346.067Z" transform="translate(-143.683 -236.521)" fill="#3e50ce"/>
    </g>
    <g id="Group_1207" data-name="Group 1207" transform="translate(182.102 417.067)">
      <path id="Path_1954" data-name="Path 1954" d="M167.57,440.956s-4.779-6.371,3.186-14.336c0,0-4.606-26.974,22.9-30.606,0,0,5.19-18.164,20.759-20.24s28.024,7.785,31.657,21.278c0,0,11.936-4.152,22.834,3.115s9.861,22.316,9.861,22.316,11.936,4.255,7.265,18.475Z" transform="translate(-166.148 -375.497)" fill="#98a3f4"/>
      <path id="Path_1955" data-name="Path 1955" d="M219.646,411.246s-8.766,0-10.56-15.269c-.927-7.9,2.458-15.132,5.943-20.282-.207.024-.408.026-.615.053-15.569,2.076-20.759,20.24-20.759,20.24-27.505,3.632-22.9,30.606-22.9,30.606-7.964,7.964-3.186,14.336-3.186,14.336h50.109C203.556,426.1,219.646,411.246,219.646,411.246Z" transform="translate(-166.148 -375.472)" fill="#808fd8"/>
    </g>
    <g id="Group_1208" data-name="Group 1208" transform="translate(605.768 318.34)">
      <path id="Path_1956" data-name="Path 1956" d="M544.508,439.776s14.216,20.813,35.21,5.7,18.3-10.735,44.418-10.407,21.081-26.961,15.2-34.1-2.938-20.993,13.856-17.214,34.849,3.359,28.131-16.795,11.336-25.192,18.055-41.567,6.3-34.848-4.2-36.947S674.607,302.72,665.79,302.3s-13.016-15.907-23.513-14.042-10.582,8.163-18.1,24.958-15.911,15.535-26.408,11.757-20.573,1.26-26.031,15.954-7.417,33.17-11.9,34.848S532.811,415.185,544.508,439.776Z" transform="translate(-541.181 -288.103)" fill="#629454"/>
      <path id="Path_1957" data-name="Path 1957" d="M667.087,315.166s-93.091,47.8-122.961,121.1" transform="translate(-540.799 -284.594)" fill="none" stroke="#341f78" stroke-linecap="round" stroke-linejoin="round" stroke-width="1"/>
      <ellipse id="Ellipse_106" data-name="Ellipse 106" cx="13.016" cy="6.062" rx="13.016" ry="6.062" transform="translate(75.785 77.296) rotate(-47.832)" fill="#3e6a45"/>
      <path id="Path_1958" data-name="Path 1958" d="M628.69,314.67c-2.459,2.459-3.125,5.783-1.484,7.422s4.963.975,7.422-1.484,3.124-5.783,1.484-7.422S631.149,312.21,628.69,314.67Z" transform="translate(-530.142 -284.967)" fill="#3e6a45"/>
      <path id="Path_1959" data-name="Path 1959" d="M581.241,343.412c-5.124,5.124-7.118,11.438-4.454,14.1s8.979.671,14.1-4.453,7.118-11.438,4.453-14.1S586.364,338.289,581.241,343.412Z" transform="translate(-536.717 -281.661)" fill="#3e6a45"/>
      <path id="Path_1960" data-name="Path 1960" d="M576.99,391.708c-6.648,8.118-7.675,18.271-2.293,22.679s15.134,1.4,21.782-6.717,7.675-18.273,2.293-22.681S583.638,383.59,576.99,391.708Z" transform="translate(-537.282 -275.802)" fill="#3e6a45"/>
    </g>
    <g id="Group_1209" data-name="Group 1209" transform="translate(606.16 273.859)">
      <path id="Path_1961" data-name="Path 1961" d="M547.022,443.712s28.131-62.512,55.422-104.733,23.932-85.886-10.077-90.084S528.967,319.852,547.022,443.712Z" transform="translate(-541.528 -248.728)" fill="#4958ed"/>
      <path id="Path_1962" data-name="Path 1962" d="M583.689,274.521s-40.22,73.9-37.281,165.846" transform="translate(-540.915 -245.383)" fill="none" stroke="#341f78" stroke-linecap="round" stroke-linejoin="round" stroke-width="1"/>
      <path id="Path_1963" data-name="Path 1963" d="M584.468,287.772c-2.575,7.124-1.715,13.963,1.919,15.277s8.669-3.4,11.244-10.521,1.715-13.964-1.919-15.277S587.043,280.647,584.468,287.772Z" transform="translate(-536.152 -245.058)" fill="#3e50ce"/>
      <path id="Path_1964" data-name="Path 1964" d="M571.88,317.594c-1.612,4.462-1.053,8.755,1.251,9.588s5.478-2.111,7.091-6.574,1.053-8.755-1.251-9.588S573.493,313.13,571.88,317.594Z" transform="translate(-537.711 -240.668)" fill="#3e50ce"/>
      <path id="Path_1965" data-name="Path 1965" d="M553.206,298.894c-2.536,7.014-2.186,13.571.782,14.643s7.428-3.745,9.963-10.76,2.186-13.571-.782-14.643S555.741,291.879,553.206,298.894Z" transform="translate(-540.233 -243.637)" fill="#3e50ce"/>
      <path id="Path_1966" data-name="Path 1966" d="M563.58,346.067c-.965,2.276-.643,4.591.72,5.168s3.249-.8,4.215-3.077.643-4.592-.72-5.169S564.546,343.79,563.58,346.067Z" transform="translate(-538.74 -236.521)" fill="#3e50ce"/>
    </g>
    <g id="Group_1210" data-name="Group 1210" transform="translate(545.285 417.067)">
      <path id="Path_1967" data-name="Path 1967" d="M607.187,440.956s4.779-6.371-3.187-14.336c0,0,4.607-26.974-22.9-30.606,0,0-5.19-18.164-20.759-20.24s-28.024,7.785-31.657,21.278c0,0-11.936-4.152-22.835,3.115s-9.86,22.316-9.86,22.316-11.936,4.255-7.266,18.475Z" transform="translate(-487.641 -375.497)" fill="#98a3f4"/>
      <path id="Path_1968" data-name="Path 1968" d="M547.366,411.246s8.766,0,10.559-15.269c.927-7.9-2.457-15.132-5.942-20.282.207.024.407.026.615.053,15.569,2.076,20.759,20.24,20.759,20.24,27.505,3.632,22.9,30.606,22.9,30.606,7.965,7.964,3.187,14.336,3.187,14.336H549.333C563.456,426.1,547.366,411.246,547.366,411.246Z" transform="translate(-479.896 -375.472)" fill="#808fd8"/>
    </g>
    <rect id="Rectangle_665" data-name="Rectangle 665" width="393.833" height="264.515" rx="16.423" transform="translate(227.869 166.691)" fill="#2b284f"/>
    <rect id="Rectangle_666" data-name="Rectangle 666" width="377.087" height="253.267" rx="16.423" transform="translate(236.242 172.314)" fill="#fff"/>
    <rect id="Rectangle_667" data-name="Rectangle 667" width="358.564" height="11.756" transform="translate(242.984 189.363)" fill="#d2d9ff"/>
    <rect id="Rectangle_668" data-name="Rectangle 668" width="212.451" height="5.038" transform="translate(316.04 364.027)" fill="#d2d9ff"/>
    <rect id="Rectangle_669" data-name="Rectangle 669" width="212.451" height="5.038" transform="translate(316.04 377.043)" fill="#d2d9ff"/>
    <rect id="Rectangle_670" data-name="Rectangle 670" width="212.451" height="5.038" transform="translate(316.04 390.059)" fill="#d2d9ff"/>
    <rect id="Rectangle_671" data-name="Rectangle 671" width="69.978" height="29.391" transform="translate(387.277 431.205)" fill="#e9efff"/>
    <path id="Rectangle_672" data-name="Rectangle 672" d="M7.307,0H82.963a7.307,7.307,0,0,1,7.307,7.307v2.11a0,0,0,0,1,0,0H0a0,0,0,0,1,0,0V7.307A7.307,7.307,0,0,1,7.307,0Z" transform="translate(377.131 460.596)" fill="#7da2ff"/>
    <g id="Group_1211" data-name="Group 1211" transform="translate(564.88 294.749)">
      <path id="Path_1969" data-name="Path 1969" d="M505.606,274.261v39.982a1.75,1.75,0,0,0,1.75,1.749h0a1.75,1.75,0,0,0,1.75-1.749V294.858a3.218,3.218,0,0,1,3.218-3.218h0a3.218,3.218,0,0,1,3.218,3.218v26.673a3.919,3.919,0,0,0,3.919,3.919h0a3.919,3.919,0,0,0,3.919-3.919V296.468a3.708,3.708,0,0,1,3.709-3.709h0a3.708,3.708,0,0,1,3.709,3.709h0a3.388,3.388,0,0,0,3.388,3.388h1.3a4.689,4.689,0,0,0,4.688-4.689V274.261Z" transform="translate(-504.907 -266.308)" fill="#f2c73c"/>
      <rect id="Rectangle_673" data-name="Rectangle 673" width="36.948" height="7.954" rx="1.767" fill="#ffda73"/>
    </g>
    <g id="Group_1212" data-name="Group 1212" transform="translate(583.168 302.703)">
      <path id="Path_1970" data-name="Path 1970" d="M593.112,293.857s-2.379,9.236-3.5,14.695,8.537,7.7,8.537,7.7l-.839,4.758s5.318-.28,7,2.379l2.659-10.776s2.8-2.939,2.24-6.578-4.339-3.218-5.6,0c0,0-4.215-4.478-4.207-10.5C599.4,295.536,596.612,297.075,593.112,293.857Z" transform="translate(-512.312 -271.72)" fill="#e5827c"/>
      <path id="Path_1971" data-name="Path 1971" d="M614.925,296.414s1.26-3.639-1.26-6.3-7.417-2.8-11.2-2.24a21.739,21.739,0,0,1-7.277-1.4c-3.779-1.26-7.838,0-8.677,3.919s5.814,9.187,5.814,9.187h0c.664-2.693,1.183-4.707,1.183-4.707,3.5,3.218,6.29,1.679,6.29,1.679-.008,6.019,4.207,10.5,4.207,10.5,1.26-3.218,5.038-3.639,5.6,0s-2.24,6.578-2.24,6.578,7-3.639,8.677-8.677A9.414,9.414,0,0,0,614.925,296.414Z" transform="translate(-512.712 -272.738)" fill="#bc4d88"/>
      <path id="Path_1972" data-name="Path 1972" d="M602.345,319.642s-7.838-.7-13.856-1.959-35.268-13.3-35.268-13.3a9.759,9.759,0,0,0-2.519,5.879S569.456,323,576.523,325.8a114.978,114.978,0,0,1,15.185,7.838s-.559,21.693,0,29.391.56,10.357.56,10.357,13.435,1.26,23.932-2.1c0,0-1.112-26.451-1.885-33.729s-4.973-15.535-4.973-15.535A7.066,7.066,0,0,0,602.345,319.642Z" transform="translate(-517.347 -270.355)" fill="#f2c73c"/>
      <path id="Path_1973" data-name="Path 1973" d="M589.98,341.654c.072-6.115.2-11.2.2-11.2s-1-.621-2.59-1.539c-.007.006-9.866,8.537-10.565,8.676s-9.8-8.677-9.8-8.677a20.956,20.956,0,0,0-4.759,3.08s10.217,15.535,13.3,16.235,14.212-6.577,14.212-6.577Z" transform="translate(-515.82 -267.174)" fill="#d3a629"/>
      <path id="Path_1974" data-name="Path 1974" d="M565.518,322.361A73.854,73.854,0,0,0,568,330.129a18.056,18.056,0,0,0-4.759,3.08,14.979,14.979,0,0,1-5.178-5.424c-1.994-3.639-2.623-4.688,1.575-6.892S564.647,319.3,565.518,322.361Z" transform="translate(-516.592 -268.385)" fill="#e5827c"/>
      <path id="Path_1975" data-name="Path 1975" d="M587,330.28l4.059,2.344L587,335.144Z" transform="translate(-512.639 -266.997)" fill="#d3a629"/>
      <path id="Path_1976" data-name="Path 1976" d="M574.055,429.082l2.834,10.5s2.2,2.939,6.822.735l-2.1-11.231Z" transform="translate(-514.318 -254.184)" fill="#e5827c"/>
      <path id="Path_1977" data-name="Path 1977" d="M566.157,446.246s.63-1.68,4.2-2.414,7.557-5.459,7.557-5.459,2.309,3.044,6.822.735c0,0,1.575,4.2,1.26,7.137C586,446.246,566.891,448.765,566.157,446.246Z" transform="translate(-515.342 -252.98)"/>
      <path id="Path_1978" data-name="Path 1978" d="M608.941,428.313l2.834,10.5s2.2,2.938,6.823.734l-1.832-12.692Z" transform="translate(-509.794 -254.474)" fill="#e5827c"/>
      <path id="Path_1979" data-name="Path 1979" d="M601.043,445.31s.63-1.68,4.2-2.415,7.557-5.458,7.557-5.458,2.309,3.043,6.823.734c0,0,1.574,4.2,1.26,7.138C620.882,445.31,601.778,447.829,601.043,445.31Z" transform="translate(-510.818 -253.101)"/>
      <path id="Path_1980" data-name="Path 1980" d="M611.838,438.983a31.883,31.883,0,0,0,7.7-2.519s-5.543-32.33-7.7-41.147-4.681-21.623-4.681-21.623l-15.745,18.894S608.542,426.806,611.838,438.983Z" transform="translate(-512.067 -261.367)" fill="#211d35"/>
      <path id="Path_1981" data-name="Path 1981" d="M613.793,363.606c-10.5,3.36-23.932,2.1-23.932,2.1s-19.174,36.807-20.434,42.476,5.249,29.391,5.249,29.391,3.989,2.519,7.347.839c0,0-.629-23.722.21-28.341s17.844-21.832,26.031-30.44S613.793,363.606,613.793,363.606Z" transform="translate(-514.939 -262.675)" fill="#2b284f"/>
      <path id="Path_1982" data-name="Path 1982" d="M521.176,274.261l44.272,57.422,2.722-2.256-41.509-55.166Z" transform="translate(-521.176 -274.261)" fill="#f4f3fe"/>
      <path id="Path_1983" data-name="Path 1983" d="M554.816,305.315s-4.374-3.043-6.368-4.2a25.659,25.659,0,0,1-4.513-3.884s-.315,2.1-1.26,2.519-3.884,1.365-4.2,2.2.524,2.519.839,3.359-.419,2.065.21,2.869.315,2.274,1.365,2.379,7.032-.105,8.5,0a12.227,12.227,0,0,1,2.9.63A9.072,9.072,0,0,1,554.816,305.315Z" transform="translate(-518.941 -271.282)" fill="#e5827c"/>
      <path id="Path_1984" data-name="Path 1984" d="M562.867,330.378s-2.573-3.183,0-5.143c0,0-4.338.21-3.289-1.26a8.731,8.731,0,0,1,5.125-3.08l2.3,7.493Z" transform="translate(-516.217 -268.214)" fill="#e5827c"/>
    </g>
    <g id="Group_1213" data-name="Group 1213" transform="translate(284.909 201.119)">
      <rect id="Rectangle_674" data-name="Rectangle 674" width="233.168" height="132.117" transform="translate(27.348 0) rotate(11.946)" fill="#98a3f4"/>
      <rect id="Rectangle_675" data-name="Rectangle 675" width="52.063" height="114.34" transform="translate(36.73 11.418) rotate(11.946)" fill="#808fd8"/>
      <rect id="Rectangle_676" data-name="Rectangle 676" width="144.168" height="13.009" transform="translate(100.378 28.807) rotate(11.946)" fill="#808fd8"/>
      <rect id="Rectangle_677" data-name="Rectangle 677" width="144.168" height="13.01" transform="matrix(0.978, 0.207, -0.207, 0.978, 95.586, 51.454)" fill="#808fd8"/>
      <rect id="Rectangle_678" data-name="Rectangle 678" width="144.168" height="13.009" transform="matrix(0.978, 0.207, -0.207, 0.978, 90.685, 74.621)" fill="#808fd8"/>
      <rect id="Rectangle_679" data-name="Rectangle 679" width="144.168" height="13.009" transform="translate(85.454 99.344) rotate(11.946)" fill="#808fd8"/>
    </g>
    <g id="Group_1214" data-name="Group 1214" transform="translate(243.399 74.966)">
      <path id="Path_1985" data-name="Path 1985" d="M289.056,107.063a82.89,82.89,0,0,1-9.032-1.147,20.165,20.165,0,0,1-2.412,5.849,16.714,16.714,0,0,0,7.006,4.581c4.4,1.449,5.68,1.927,7.246-3.13S292.6,107.395,289.056,107.063Z" transform="translate(-212.992 -68.355)" fill="#e5827c"/>
      <path id="Path_1986" data-name="Path 1986" d="M226.542,93.929S250.681,71.636,261.228,72.7c0,0,5.625.835,6.562,6.46L269.9,101.9l11.883,15.936s-.868,4.218-3.914,4.922c0,0-15.7-12.891-16.64-15.936s-1.64-10.339-1.64-10.339-5.625,1.9-7.969,5.886-2.812,9.609-2.812,9.609S224.667,107.991,226.542,93.929Z" transform="translate(-219.628 -72.667)" fill="#c52a52"/>
      <path id="Path_1987" data-name="Path 1987" d="M247.357,107.788s12.421,11.249,17.108,15.468,5.625,30.935,5.625,30.935-1.874,2.11-6.562,1.173c0,0-4.218-11.718-4.8-21.562l-20.037-11.483-1.066-17.36Z" transform="translate(-218.178 -68.48)" fill="#7d8dd6"/>
      <path id="Path_1988" data-name="Path 1988" d="M239.851,106.7h0c-6.461-2.623-13.578-7.336-12.527-15.216a21.283,21.283,0,0,0-6.8,17.812c1.171,11.249,12.421,22.967,12.421,22.967-4.687,7.969-8.905,28.123-8.905,28.123.234,3.984,5.39,2.813,5.39,2.813s16.874-26.249,15.936-30.936S239.851,106.7,239.851,106.7Z" transform="translate(-220.41 -70.226)" fill="#4f64c7"/>
      <path id="Path_1989" data-name="Path 1989" d="M256.274,94.847V85.264l-4.283,11.767A25.908,25.908,0,0,1,256.274,94.847Z" transform="translate(-216.314 -71.033)" fill="#772c4c"/>
      <path id="Path_1990" data-name="Path 1990" d="M264.91,98.542l10.269,13.772,3.558.993a13.709,13.709,0,0,0,3.047-7.518Z" transform="translate(-214.639 -69.312)" fill="#772c4c"/>
      <path id="Path_1991" data-name="Path 1991" d="M223.836,152.481s-2.344,3.047-1.719,8.516c0,0,11.718,1.718,16.718.781a55.629,55.629,0,0,0-9.609-6.483S224.772,156.778,223.836,152.481Z" transform="translate(-220.202 -62.317)"/>
      <path id="Path_1992" data-name="Path 1992" d="M260.553,149.712v6.254s9.531,1.645,17.5,0a18.545,18.545,0,0,0-6.562-4.145c-3.751-1.251-4.375-3.282-4.375-3.282S264.772,150.414,260.553,149.712Z" transform="translate(-215.204 -62.828)"/>
      <path id="Path_1993" data-name="Path 1993" d="M271.964,117.571s2.421,3.281,4.609,3.436,1.874,1.562,3.594,1.719,2.812.156,4.218-1.875.469.156,1.406-2.031-9.913-6.171-9.913-6.171A9.4,9.4,0,0,1,271.964,117.571Z" transform="translate(-213.724 -67.482)" fill="#e5827c"/>
      <line id="Line_78" data-name="Line 78" y1="92.996" transform="translate(72.237 39.184)" fill="none" stroke="#98a3f4" stroke-miterlimit="10" stroke-width="1"/>
      <path id="Path_1994" data-name="Path 1994" d="M280.2,111.183s4.017,2.177,5.645-1.046c0,0,.652,4.8,2.052,3.354a9.749,9.749,0,0,0,2.338-6.253l-8.693-1Z" transform="translate(-212.657 -68.314)" fill="#e5827c"/>
    </g>
    <g id="Group_1215" data-name="Group 1215" transform="translate(543.972 460.596)">
      <rect id="Rectangle_680" data-name="Rectangle 680" width="26.67" height="37.148" transform="translate(1.979 1.619)" fill="#a3a3a3"/>
      <path id="Path_1995" data-name="Path 1995" d="M488.231,452.611H514.9l-26.67-37.148Z" transform="translate(-486.252 -413.843)" fill="#d3d3d3"/>
      <path id="Path_1996" data-name="Path 1996" d="M488.648,414.029h25.993a1.726,1.726,0,0,1,1.726,1.727v11.513s-.19,3.62-2.857,2.1-1.429-6.292-3.049-7.48c-1.985-1.456-5.833,3.6-4.166,8.059,1.038,2.781-.618,5.084-3.548,4.61-4.393-.709-2.412-9.774-4.382-11.952-1.81-2-5.429-1.524-6.1,4.381s-4,7.049-5.239,5.906c-1.008-.931-.374-12.848-.1-17.245A1.72,1.72,0,0,1,488.648,414.029Z" transform="translate(-486.479 -414.029)" fill="#f2c73c"/>
    </g>
    <g id="Group_1223" data-name="Group 1223" transform="translate(235.733 235.853)">
      <g id="Group_1216" data-name="Group 1216">
        <path id="Path_1997" data-name="Path 1997" d="M215.559,470.312c-.067,0-.133,0-.2-.01a1.934,1.934,0,0,1-1.726-2.12l25.751-251.359a1.933,1.933,0,1,1,3.847.394L217.48,468.577A1.934,1.934,0,0,1,215.559,470.312Z" transform="translate(-213.623 -215.085)" fill="#341f78"/>
      </g>
      <g id="Group_1217" data-name="Group 1217" transform="translate(52.623 0.002)">
        <path id="Path_1998" data-name="Path 1998" d="M287.888,470.312a1.933,1.933,0,0,1-1.92-1.735l-25.752-251.36a1.933,1.933,0,1,1,3.847-.394l25.751,251.359a1.933,1.933,0,0,1-1.726,2.12C288.02,470.307,287.953,470.312,287.888,470.312Z" transform="translate(-260.205 -215.087)" fill="#341f78"/>
      </g>
      <g id="Group_1218" data-name="Group 1218" transform="translate(23.038 27.363)">
        <path id="Path_1999" data-name="Path 1999" d="M268.227,243.173H235.95a1.933,1.933,0,1,1,0-3.866h32.277a1.933,1.933,0,1,1,0,3.866Z" transform="translate(-234.016 -239.307)" fill="#341f78"/>
      </g>
      <g id="Group_1219" data-name="Group 1219" transform="translate(19.574 60.298)">
        <path id="Path_2000" data-name="Path 2000" d="M272.11,272.328H232.884a1.933,1.933,0,1,1,0-3.866H272.11a1.933,1.933,0,0,1,0,3.866Z" transform="translate(-230.95 -268.462)" fill="#341f78"/>
      </g>
      <g id="Group_1220" data-name="Group 1220" transform="translate(15.335 101.672)">
        <path id="Path_2001" data-name="Path 2001" d="M276.966,308.953H229.131a1.933,1.933,0,0,1,0-3.867h47.835a1.933,1.933,0,0,1,0,3.867Z" transform="translate(-227.198 -305.086)" fill="#341f78"/>
      </g>
      <g id="Group_1221" data-name="Group 1221" transform="translate(10.56 148.282)">
        <path id="Path_2002" data-name="Path 2002" d="M282.053,350.213H224.9a1.933,1.933,0,0,1,0-3.867h57.149a1.933,1.933,0,0,1,0,3.867Z" transform="translate(-222.971 -346.346)" fill="#341f78"/>
      </g>
      <g id="Group_1222" data-name="Group 1222" transform="translate(3.786 214.406)">
        <path id="Path_2003" data-name="Path 2003" d="M289.619,408.745H218.908a1.933,1.933,0,1,1,0-3.866h70.711a1.933,1.933,0,0,1,0,3.866Z" transform="translate(-216.974 -404.879)" fill="#341f78"/>
      </g>
    </g>
    <circle id="Ellipse_107" data-name="Ellipse 107" cx="15.19" cy="15.19" r="15.19" transform="matrix(0.932, -0.364, 0.364, 0.932, 98.192, 201.802)" fill="#d2d9ff"/>
    <circle id="Ellipse_108" data-name="Ellipse 108" cx="13.374" cy="13.374" r="13.374" transform="translate(636.776 218.54) rotate(-76.649)" fill="#d2d9ff"/>
    <circle id="Ellipse_109" data-name="Ellipse 109" cx="8.502" cy="8.502" r="8.502" transform="translate(768.439 369.065)" fill="#d2d9ff"/>
    <circle id="Ellipse_110" data-name="Ellipse 110" cx="13.089" cy="13.089" r="13.089" transform="translate(55.645 374.201)" fill="#d2d9ff"/>
  </g>
</svg>
