<svg xmlns="http://www.w3.org/2000/svg" width="96.458" height="90.008" viewBox="0 0 96.458 90.008">
  <g id="Group_6725" data-name="Group 6725" transform="translate(-1034 -288.907)">
    <g id="g1587" transform="translate(1034 324.548)">
      <g id="text873" transform="translate(50.259 13.6)">
        <path id="path886" d="M553.943,288.7q.587-.492,1.713-1.38,1.095-.825,1.491-1.095l1.714-1.111q-.063-.048-.492-.317a.508.508,0,0,1-.333-.476,12.4,12.4,0,0,1,1.714-2.729q1.063-1.285,1.253-1.174,1.936.667,2.285.841,1.269.587,1.269,1.349a3,3,0,0,1-.476,1.364,6.688,6.688,0,0,1-1.19,1.4,6.112,6.112,0,0,1-1.745,1,31.148,31.148,0,0,0-4.252,1.761,13.688,13.688,0,0,0-2.951,2.046,2.543,2.543,0,0,1-.143-.73,1.465,1.465,0,0,1,.143-.746Z" transform="translate(-518.357 -280.407)" fill="#009788"/>
        <path id="path1592" d="M531.09,408.756a.515.515,0,0,0-.281.035,6.291,6.291,0,0,0-1.095,1.793,6.755,6.755,0,0,0-.841,2.189.776.776,0,0,0,.333.555q.4.317,1.19.857a3.485,3.485,0,0,0,.936.555q.349,0,1.143-1.428a5.007,5.007,0,0,0,.793-2.157,3.38,3.38,0,0,0-1.016-1.587A2.318,2.318,0,0,0,531.09,408.756Z" transform="translate(-499.346 -378.316)" fill="#009788"/>
        <path id="path888" d="M529.208,315.636a7.247,7.247,0,0,0-1.586,1.761,4.687,4.687,0,0,0-.746,1.618q-.064.238.238.3a11.052,11.052,0,0,0,1.825.079q1.555,0,1.983-.048a7.408,7.408,0,0,0,1.174-.143q0,.92-2.047,2.094a6.279,6.279,0,0,1-3.078.778,3.02,3.02,0,0,1-2.666-1.095,5.062,5.062,0,0,1-.825-3.142,1.407,1.407,0,0,0-.667.476,4.143,4.143,0,0,0-.635.952,7.052,7.052,0,0,0-.507,1.19,4.711,4.711,0,0,0-.238,1.174,6.43,6.43,0,0,0,1,3.713,3.187,3.187,0,0,0,2.824,1.444,5.742,5.742,0,0,0,3.03-.825,10.825,10.825,0,0,0,2.523-2.411,25.981,25.981,0,0,0,1.856-2.586,10.912,10.912,0,0,1,1.348-1.856q.936-.952.936-1.46,0-.54-.571-.539a5.12,5.12,0,0,0-.889.19q-.19.063-1.142.222t-2.158.238q-1.19.079-1.364-.111a.61.61,0,0,1,.143-.27l.238-.27q.143-.27.222-.46a.939.939,0,0,0,.016-.381,1.451,1.451,0,0,0-.1-.4A1,1,0,0,0,529.208,315.636Z" transform="translate(-493.67 -307.282)" fill="#009788"/>
        <path id="path890" d="M519.725,300.981a16.271,16.271,0,0,0,.1,2.523,5.043,5.043,0,0,1-.587,2.046q-.1.191-.619,1.174a1.462,1.462,0,0,0-.793.428l-1.111,1.11a.613.613,0,0,1-.159-.3,2.586,2.586,0,0,1-.079-.524,2.477,2.477,0,0,1,.047-.619,1.5,1.5,0,0,1,.19-.555,1.485,1.485,0,0,0,.873-1.444q.048-2.38.254-4.141t.508-3.554q.793-2.634,1.333-3.95a11.869,11.869,0,0,1,.888-1.951q.111-.111.206-.016a1.37,1.37,0,0,1,.032.524q-.286,1.9-.508,3.2-.571,3.554-.587,4.379Z" transform="translate(-489.882 -288.613)" fill="#009788"/>
        <path id="path892" d="M431.179,356.373a3.113,3.113,0,0,1-1.9.968q-1.269.857-1.84.555a7.6,7.6,0,0,1-1.317.825,5.34,5.34,0,0,1-1.634.428q-.048,0-.143.381a30.827,30.827,0,0,1-1.856,7.806,23.924,23.924,0,0,1-2.681,5q-3.855,5.219-9.266,5.267a6.23,6.23,0,0,1-4.442-1.856,6.949,6.949,0,0,1-1.745-4.791,21.533,21.533,0,0,1,3.189-10.534q.619-1.142.746-.714a1.381,1.381,0,0,1-.032.825,17.269,17.269,0,0,0-2.158,7.234,4.474,4.474,0,0,0,1.745,3.522,6.652,6.652,0,0,0,3.934,1.238,11.816,11.816,0,0,0,5.949-1.634,11.268,11.268,0,0,0,3.411-3.554q1.872-2.967,1.761-8.186v-1.491q.1-1.507,1.38-1.523a3.021,3.021,0,0,1,.888.175,1.6,1.6,0,0,0,1.063-.047,3.833,3.833,0,0,0,1.285-1.222q.159-.079.413.19a.978.978,0,0,0,.7.254q.412,0,.714-.571.317-.587.476-.444a1.517,1.517,0,0,0,.745.143,1.607,1.607,0,0,0,.619-.238l.19.381a1.372,1.372,0,0,1,.1.587,1.473,1.473,0,0,1-.1.619q-.143.286-.19.413Z" transform="translate(-404.351 -336.834)" fill="#009788"/>
      </g>
      <path id="path920" d="M472.46,307.353q-.258,0-.452.684-.271.748-.31.826a1.653,1.653,0,0,1-.245.374.389.389,0,0,1-.465.078q-.335-.116-.348-.078a8.928,8.928,0,0,1-.568,1.1,1.383,1.383,0,0,1-.826.645.616.616,0,0,1-.529-.065.938.938,0,0,0-.31-.116q-.194.077-.361.5a3.147,3.147,0,0,1-1.084,1.278q-.581.426-.774.542a3.619,3.619,0,0,1-.658.374q-.568.271-.645.632a3.2,3.2,0,0,0-.09.8l-.3,1.665q.026-.181.348-.413a2.961,2.961,0,0,1,.542-.349,8.934,8.934,0,0,0,1.148-.774,7.866,7.866,0,0,0,1.252-1.045,3.369,3.369,0,0,0,1.1-.5,4.385,4.385,0,0,0,1.032-1.007,1.934,1.934,0,0,1,.49-.349,4.746,4.746,0,0,0,.9-.787,5.537,5.537,0,0,0,.89-1.588,5.606,5.606,0,0,0,.413-2.014Q472.615,307.353,472.46,307.353Z" transform="translate(-399.975 -287.363)" fill="#009788"/>
      <path id="path918" d="M474.122,243.947q-.149-.016-.919.992-.528.716-1.105,1.471a3.754,3.754,0,0,0-.918-1.335q-.694-.737-1.052-.774-.227.007-1.368,1.67a9.253,9.253,0,0,0-1.167,1.918q-.016.149.943,1.1a5.2,5.2,0,0,0,1.11.947q.7.073,2.19-2.31a9.755,9.755,0,0,1,1.12,1.28q.48.609.765.639.358.037,1.319-1.056a4.1,4.1,0,0,0,1.022-1.979,2.427,2.427,0,0,0-.644-1.654A2.358,2.358,0,0,0,474.122,243.947Z" transform="translate(-402.336 -238.993)" fill="#009788"/>
      <path id="path899" d="M480.986,223.054q-.272,0-1.292,1.663a11.176,11.176,0,0,0-1.028,1.887q-.023.224.307.531.346.308.969.992t.848.708q.329.034,1.167-1.193a4.7,4.7,0,0,0,.93-1.958,2.537,2.537,0,0,0-.591-1.724,2.124,2.124,0,0,0-1.311-.907Z" transform="translate(-410.784 -223.054)" fill="#009788"/>
      <path id="path901" d="M445.563,328.986a13.97,13.97,0,0,1-1.252,2.762,4.14,4.14,0,0,1-.917,1.11,5.424,5.424,0,0,1-.981.452q-.658.245-2.013.684a9.31,9.31,0,0,1-1.587.426c-.1,0-.155-.026-.155-.078q-.155-.206,1.6-1.381t2.271-1.549a5.072,5.072,0,0,0,1.045-1.084,4.635,4.635,0,0,0,.787-1.6.8.8,0,0,0-.284.026q-.129.039-.271.09t-.271.1a1.028,1.028,0,0,1-.271.039,1.856,1.856,0,0,1-1.213-.465,1.111,1.111,0,0,1-.4-.994q.077-.323.219-.761a14.338,14.338,0,0,1,.619-1.381,9.79,9.79,0,0,1,.929-1.575,1.283,1.283,0,0,1,.942-.619,1.617,1.617,0,0,1,1.329.684,2.546,2.546,0,0,1,.529,1.626,7.144,7.144,0,0,1-.064.955q-.052.477-.116.8t-.194.813q-.129.49-.284.916Z" transform="translate(-380.254 -299.445)" fill="#009788"/>
      <path id="path903" d="M401.533,334.851a10.926,10.926,0,0,1-.4,1.9q-.374,1.368-.994,2.994a19.288,19.288,0,0,1-1.071,2.465,4.233,4.233,0,0,1-1.02,1.265,5.274,5.274,0,0,1-1.781.8,20.125,20.125,0,0,1-1.975.478,7.54,7.54,0,0,1-.929.129q-.193-.026-.232-.155a.423.423,0,0,1,.116-.348,3.453,3.453,0,0,1,1.071-.865q.865-.529,2-1.329a8.3,8.3,0,0,0,1.626-1.407,10.551,10.551,0,0,0,1.1-1.807q.606-1.2,1.1-2.414t.71-1.665q.219-.452.465-.426.219.039.219.387Z" transform="translate(-345.527 -308.044)" fill="#009788"/>
      <path id="path905" d="M372.173,357.374q-.192,1.858-.329,3.343-.122,1.468-.293,2.486a18.408,18.408,0,0,1-.964,3.863,14.734,14.734,0,0,1-.963,2.2,6.1,6.1,0,0,1-.533.785q-.235.24-.35.146a.3.3,0,0,1-.059-.3q0-.051.358-1.537a24.1,24.1,0,0,0,.512-2.883q.172-1.413.322-3.979a37.467,37.467,0,0,1,.387-3.94,14.57,14.57,0,0,1,.391-1.62q.252-.84.554-1.626.317-.8.641-1.516t.595-1.262q.216-.345.344-.249a.256.256,0,0,1,.1.282q-.036.118-.107.525-.056.391-.138.952-.067.545-.141,1.175t-.146,1.243q-.058.6-.109,1.109t-.073.8Z" transform="translate(-326.872 -320.863)" fill="#009788"/>
      <path id="path907" d="M305.03,329.766a5.866,5.866,0,0,1-.294,1.128,15.635,15.635,0,0,1-.649,1.514q-.448.974-.541,1.113-.371.587-.649.587-.2-.139-.371-.263a.454.454,0,0,0-.294-.139,3.723,3.723,0,0,0-1.545.479,9.729,9.729,0,0,0-2.086,1.53,12.106,12.106,0,0,0-1.761,1.947,2.909,2.909,0,0,0-.634,1.236.982.982,0,0,0,.325.788,4.29,4.29,0,0,0,.989.494,4.089,4.089,0,0,1,.958.464,2.392,2.392,0,0,1,.757,2.086,17.72,17.72,0,0,1-.819,4.929,18.218,18.218,0,0,1-2.117,4.806,17.146,17.146,0,0,1-1.591,1.885,10.659,10.659,0,0,1-1.931,1.638,8.151,8.151,0,0,1-4.589,1.313,5.472,5.472,0,0,1-4.481-1.993,6.047,6.047,0,0,1-.958-2.1,9.214,9.214,0,0,1-.263-2.117,16.554,16.554,0,0,1,.185-2.488,16.093,16.093,0,0,1,.572-2.441,30.2,30.2,0,0,1,1.452-3.848q.865-1.854,1.406-3L287.183,337q.185-.386.386-.757.216-.371.386-.371.232,0,.232.371a1.182,1.182,0,0,1-.077.556q-.247.664-.433,1.128-.185.448-.556,1.313-.371.85-.8,1.854-.433.989-.711,1.638a17.279,17.279,0,0,0-1.36,5.424,3.706,3.706,0,0,0,1.344,3.013,5.871,5.871,0,0,0,3.817,1.113,8.653,8.653,0,0,0,3.94-.958,8.126,8.126,0,0,0,2.364-1.731,9.775,9.775,0,0,0,1.452-1.916,3.4,3.4,0,0,0,.495-1.607q0-.448-.664-.649a9.819,9.819,0,0,0-.943-.278,3.5,3.5,0,0,1-.664-.263,2.721,2.721,0,0,1-1.082-.865,2.423,2.423,0,0,1-.371-1.422,9.452,9.452,0,0,1,.881-3.477,17.924,17.924,0,0,1,2.519-4.156,27.526,27.526,0,0,1,2.41-2.7q.587-.541,1.483-1.221a18.7,18.7,0,0,1,1.761-1.174,5.312,5.312,0,0,1,1.653-.7.339.339,0,0,1,.34.216.572.572,0,0,1,.046.386Z" transform="translate(-261.125 -304.001)" fill="#009788"/>
      <path id="path926" d="M254.852,385.873q-.189,1.436-.323,2.583a19.07,19.07,0,0,1-.287,1.919,11.563,11.563,0,0,1-.946,2.964,9.951,9.951,0,0,1-.944,1.671,4.622,4.622,0,0,1-.522.591q-.23.178-.343.1a.2.2,0,0,1-.058-.232q0-.039.351-1.18a14.865,14.865,0,0,0,.5-2.219q.169-1.091.316-3.077a22.877,22.877,0,0,1,.38-3.044,9.14,9.14,0,0,1,.384-1.244q.247-.643.543-1.242t.629-1.154q.318-.543.584-.958.211-.26.337-.182a.188.188,0,0,1,.1.223,3.542,3.542,0,0,0-.1.4q-.055.3-.136.734t-.139.907q-.073.486-.144.96t-.107.857q-.05.4-.072.62Z" transform="translate(-237.423 -343.662)" fill="#009788"/>
      <g id="g938" transform="translate(0 20.938)">
        <path id="path928" d="M230.747,346.849q-.083.894-.107,1.326a6.055,6.055,0,0,0,.133,1.616,2.772,2.772,0,0,0,.877,1.351,2.927,2.927,0,0,0,1.742.663,3.418,3.418,0,0,0,2.514-.618,8.35,8.35,0,0,1,1.727-1.142,1.01,1.01,0,0,1,.632.025,2.912,2.912,0,0,0,.759.1q.447.042.939-.932a3.4,3.4,0,0,1,.65-1.059.464.464,0,0,1,.351,0,3.049,3.049,0,0,0,.777.273q.43.04.8-.51a6.259,6.259,0,0,0,.528-1q.315-.689.464-.675.2.018.157.466a6.21,6.21,0,0,1-1.283,3.188q-1.159,1.5-2.2,1.4-.768.9-.877.988a1.777,1.777,0,0,1-1.281.666,5.324,5.324,0,0,0-.9-.184,1.814,1.814,0,0,0-.8.126,7.618,7.618,0,0,0-2.078,1.861,3.89,3.89,0,0,1-3.183,1.525,2.749,2.749,0,0,1-2.439-1.8,8.582,8.582,0,0,1-.407-3.88,17.129,17.129,0,0,1,1.188-2.9q.592-1.148,1.055-1.1.1.009.263.225Z" transform="translate(-219.702 -337.989)" fill="#009788"/>
        <path id="path930" d="M203.658,318.877q-.124.974-.338,2.374-.2,1.385-.267,1.963a16.772,16.772,0,0,1-.719,3.241q-.436,1.279-.774,2.033-.3.723-.81,1.7a11.964,11.964,0,0,1-1.34,2.014,9.917,9.917,0,0,1-1.642,1.668,3.658,3.658,0,0,1-2.543.749,2.694,2.694,0,0,1-1.193-.462,5.3,5.3,0,0,1-.882-.934q-.367-.368-.457-.477a.9.9,0,0,1-.286-.695,1.026,1.026,0,0,1,.3-.557l.63-.66q.168-.185.453-.559a4.059,4.059,0,0,0,.53-1.02,9.972,9.972,0,0,0,.475-1.693q.2-1.067.3-1.826l.193-1.536q.09-.794.156-1.673a20.4,20.4,0,0,1,1.258-4.895q.681-1.757,2.111-4.732a.888.888,0,0,1,.174-.251.228.228,0,0,1,.14-.07q.164.032.061.958-.075.444-.234,1.432-.177,1-.22,1.283l-1.148,6.409a24.293,24.293,0,0,1-.528,2.624,18.89,18.89,0,0,1-.974,2.749,12.564,12.564,0,0,1-1.994,3.289q.041.1.388.136l.626.092a4.135,4.135,0,0,0,2.812-.774,4.861,4.861,0,0,0,1.952-2.124,8.9,8.9,0,0,0,.641-2.4q.426-2.784.719-4.845a30.17,30.17,0,0,1,.629-3.35,21.85,21.85,0,0,1,.94-2.736q.622-1.479,1.856-3.787.172-.235.3-.173a6.3,6.3,0,0,1-.3,1.944q-.408,1.866-1,5.57Z" transform="translate(-192.404 -311.35)" fill="#009788"/>
      </g>
      <path id="path1515" d="M232.117,239.7a1.731,1.731,0,0,0-.99.525q-.556.633-1.217,1.312l-1.658,2.068a.586.586,0,0,0,.191.755q.409.349.359.54a.876.876,0,0,1-.4.452,6.551,6.551,0,0,1-1.384.748,17.41,17.41,0,0,0-2.007,1.141,18.263,18.263,0,0,0-1.91,1.408q-.685.577-1.1.97a9.653,9.653,0,0,0-1.251,1.29c-2.987,3.72-2.492,6.014,1.511,6.991,2.117.517,4.4.613,10.147.431,2.512-.08,5.488-.234,6.614-.342,4.14-.4,12.862-1.42,17.825-2.086,10.378-1.392,12.193-1.655,14.883-2.153,1.512-.28,3.329-.548,4.037-.6a33.826,33.826,0,0,0,3.586-.57c1.264-.266,3.723-.746,5.464-1.067s3.926-.783,4.857-1.027a19.356,19.356,0,0,1,2.256-.483c.755-.053,1.83-.9,1.879-1.473.031-.365-.124-.484-.72-.555a3.187,3.187,0,0,0-.372-.009c-2.569.041-15.537,1.38-29.787,3.085-18.544,2.22-21.961,2.5-30.5,2.481-4.393-.009-7.01-.167-8.2-.5a16.243,16.243,0,0,1-2.15-.608c-.851-.336-.565-1.094.5-2.02l.057-.016a.708.708,0,0,1,.131-.143c.045-.037.089-.074.137-.111.362-.276.994-.65,1.491-.983a14.034,14.034,0,0,1,1.846-1.091,18.954,18.954,0,0,1,2.5-.9q.436-.108,1.118-.3.7-.2,1.694-.445a5.9,5.9,0,0,0,2.357-1.271,3.779,3.779,0,0,0,1.509-2,1.933,1.933,0,0,0-.614-1.683,6.731,6.731,0,0,0-2.419-1.732.67.67,0,0,0-.269-.041Z" transform="translate(-212.566 -235.752)" fill="#009788"/>
      <path id="path1529" d="M326.4,330.4q-.174,0-.824,1.062a7.134,7.134,0,0,0-.656,1.2q-.015.143.2.339t.618.633q.408.438.541.452.21.022.745-.761a3,3,0,0,0,.593-1.249,1.619,1.619,0,0,0-.377-1.1A1.355,1.355,0,0,0,326.4,330.4Z" transform="translate(-293.493 -304.946)" fill="#009788"/>
      <path id="path1531" d="M313.236,330.4q-.174,0-.824,1.062a7.134,7.134,0,0,0-.656,1.2q-.015.143.2.339t.618.633q.408.438.541.452.21.022.745-.761a3,3,0,0,0,.593-1.249,1.62,1.62,0,0,0-.377-1.1A1.355,1.355,0,0,0,313.236,330.4Z" transform="translate(-283.453 -304.946)" fill="#009788"/>
      <path id="path1539" d="M322.126,344.7l-.331.828c1.042,1.194.461,3.584.461,3.584C322.337,349.179,323.408,346.324,322.126,344.7Z" transform="translate(-291.112 -315.857)" fill="#009788"/>
      <path id="path1563" d="M561.077,251.02c-.054.007-.095.035-.092.061s-.059.057-.14.068-.144.038-.141.062-.1.071-.235.107-.238.085-.234.111-.06.055-.14.066-.144.041-.141.068-.06.057-.14.068-.144.041-.141.068-.038.055-.092.061-.095.035-.091.062-.06.057-.14.068-.144.041-.141.068-.038.055-.092.062-.1.034-.092.061-.06.058-.14.068a.158.158,0,0,0-.115.055v.012a.006.006,0,0,1,0,0c-.054.007-.1.035-.091.061s-.038.055-.092.062-.1.035-.091.061-.038.055-.092.061-.1.035-.091.062-.038.054-.092.061-.1.035-.092.061-.038.055-.091.061-.1.033-.092.057-.081.071-.186.1-.189.078-.185.1-.034.05-.082.056a.238.238,0,0,0-.145.118.236.236,0,0,1-.145.118c-.048.006-.084.033-.081.06s-.038.055-.091.062-.1.034-.092.061-.038.055-.091.062-.1.034-.092.061-.038.055-.091.061-.1.035-.091.061-.033.054-.081.06a.237.237,0,0,0-.145.118c-.032.059-.086.111-.121.115s-.06.03-.056.057-.033.054-.081.06a.236.236,0,0,0-.145.118.238.238,0,0,1-.145.118c-.048.006-.084.033-.081.06s-.033.054-.081.06a.238.238,0,0,0-.145.118.231.231,0,0,1-.134.117.231.231,0,0,0-.134.117.228.228,0,0,1-.125.116.474.474,0,0,0-.186.173.507.507,0,0,1-.173.171,2.789,2.789,0,0,0-.6.8c.005.041-.012.077-.039.08s-.043.051-.036.1-.009.1-.036.1-.038.094-.024.2,0,.2-.024.2-.029.162,0,.375c.042.327.063.381.183.474a.41.41,0,0,0,.358.076c.122-.016.225-.007.229.02s.137.032.3.011.3-.016.3.011.116.035.251.018l.245-.032-.044-.342c-.025-.2-.065-.34-.093-.336s-.057-.06-.068-.14c-.018-.143-.024-.146-.264-.115-.134.017-.247.009-.251-.018s-.116-.035-.251-.018-.248.009-.251-.018-.05-.043-.1-.036-.1,0-.1-.014a.727.727,0,0,1,.262-.3.5.5,0,0,0,.174-.172.475.475,0,0,1,.186-.173.227.227,0,0,0,.125-.115.229.229,0,0,1,.134-.117.231.231,0,0,0,.134-.117.237.237,0,0,1,.145-.118c.048-.006.084-.033.081-.06s.033-.054.081-.06a.237.237,0,0,0,.145-.118.237.237,0,0,1,.145-.118c.048-.006.084-.033.081-.06s.038-.054.091-.061.1-.035.092-.062.022-.052.056-.057a.228.228,0,0,0,.12-.115.238.238,0,0,1,.145-.118c.048-.006.084-.033.081-.06s.038-.055.092-.062.095-.035.091-.061.033-.054.081-.06a.237.237,0,0,0,.145-.118.237.237,0,0,1,.145-.118c.048-.006.084-.033.081-.06s.038-.055.092-.061.1-.035.092-.062.038-.055.092-.061.095-.034.091-.061.038-.055.092-.061.1-.035.091-.061.038-.055.092-.062.1-.035.091-.061.038-.055.091-.062.1-.034.092-.061.038-.055.092-.061.1-.035.092-.062.038-.054.091-.061.1-.035.092-.062.033-.054.081-.06a.236.236,0,0,0,.145-.118l0,0,.026-.006c.054-.007.1-.034.091-.061s.038-.055.092-.062.095-.034.091-.061.06-.057.14-.068.144-.041.141-.068.038-.055.092-.061.1-.035.091-.062.06-.057.14-.068.144-.041.141-.068.06-.057.14-.068.144-.041.14-.068.038-.055.092-.061.1-.035.091-.061.06-.058.14-.068.144-.041.141-.068.028-.053.069-.059a.511.511,0,0,0,.275-.356c-.005-.042.012-.078.039-.082s.043-.05.037-.1.009-.1.036-.1.043-.051.037-.1.009-.1.036-.1.042-.061.033-.129c-.012-.09-.042-.119-.114-.11Z" transform="translate(-468.222 -244.387)" fill="#009788"/>
    </g>
    <g id="g1724" transform="translate(1054 313.103)">
      <g id="g1674" transform="translate(34.01 0)">
        <path id="path1679" d="M503.964,204.449a2.352,2.352,0,0,0-.41.671,2.533,2.533,0,0,0-.315.82.291.291,0,0,0,.125.208q.149.119.446.321a1.3,1.3,0,0,0,.35.208q.131,0,.428-.535a1.875,1.875,0,0,0,.3-.808,1.267,1.267,0,0,0-.38-.594q-.351-.374-.541-.291Z" transform="translate(-482.979 -197.404)" fill="#009788"/>
        <path id="path1609" d="M502.673,174.792a1.138,1.138,0,0,0-.571.19,1.761,1.761,0,0,0-.475.541,4.176,4.176,0,0,0-.309.564c-.028.1-.024.161.012.172q.107.054.291-.208a2.653,2.653,0,0,1,.279-.285.987.987,0,0,1,.505-.1,3.81,3.81,0,0,1,.826.1q.452.1.451.172,0,.018-.8.4a6.619,6.619,0,0,0-.82.47,4.262,4.262,0,0,0-.612.511,3.3,3.3,0,0,0-.309.362.334.334,0,0,0,.2.083.4.4,0,0,0,.279-.083,4.29,4.29,0,0,1,.761-.457,11.02,11.02,0,0,1,1.075-.475,6.558,6.558,0,0,0,.766-.338q.731-.457.731-.909a.332.332,0,0,0-.19-.3,2.473,2.473,0,0,0-.469-.172q-.267-.072-.779-.166a3.247,3.247,0,0,0-.838-.077Z" transform="translate(-481.378 -174.787)" fill="#009788"/>
        <path id="path1611" d="M494.515,186.819a.382.382,0,0,1,.255-.065.412.412,0,0,1,.214.065q.4.4.618.665a.77.77,0,0,1,.22.47.875.875,0,0,1-.053.309,1.646,1.646,0,0,1-.166.315.729.729,0,0,1-.582.362l-.321-.06a1.638,1.638,0,0,0-.356-.065,1.184,1.184,0,0,0-.731.315,2.1,2.1,0,0,0-.63.808.862.862,0,0,1-.083.041.461.461,0,0,1-.131.042.4.4,0,0,1-.155-.006.256.256,0,0,1-.143-.077,9.5,9.5,0,0,1,.63-1.105q.22-.3.446-.57t.4-.481a1.306,1.306,0,0,0,.125-.2,1.737,1.737,0,0,1,.232-.493q.137-.172.214-.273Z" transform="translate(-474.764 -183.915)" fill="#009788"/>
        <path id="path1613" d="M483.745,195.717l-.22.493-.333.909q-.072.178-.113.267c-.043.1-.107.133-.19.113q-.072-.018-.036-.232.036-.166.06-.315c.02-.1.04-.192.059-.279a3.09,3.09,0,0,0,.042-.339.888.888,0,0,0-.184-.571.7.7,0,0,0-.564-.232.994.994,0,0,0-.606.452,4.924,4.924,0,0,1-.874.992l-.38.309a2.725,2.725,0,0,1-.012-.672,2.085,2.085,0,0,1,.178-.665,1.014,1.014,0,0,0,.25.006.628.628,0,0,0,.333-.154,1.821,1.821,0,0,0,.362-.339q.143-.178.279-.362t.273-.368a.993.993,0,0,1,.743-.4.737.737,0,0,1,.588.3q.143.22.214.345c.048.079.089.15.125.214a.375.375,0,0,1,.041.154q0,.143-.006.2a.422.422,0,0,1-.012.1.664.664,0,0,1-.018.083Z" transform="translate(-465.54 -189.693)" fill="#009788"/>
        <path id="path1615" d="M470.975,199.9a6.413,6.413,0,0,1-.576,1.271,1.914,1.914,0,0,1-.422.511,2.522,2.522,0,0,1-.452.208q-.3.113-.927.315a4.289,4.289,0,0,1-.731.2c-.047,0-.071-.012-.071-.036q-.071-.095.737-.636t1.046-.713a2.333,2.333,0,0,0,.481-.5,2.136,2.136,0,0,0,.362-.737.365.365,0,0,0-.131.012c-.04.012-.081.026-.125.042l-.125.048a.473.473,0,0,1-.125.018.857.857,0,0,1-.558-.214.512.512,0,0,1-.184-.458q.036-.148.1-.35a6.62,6.62,0,0,1,.285-.636,4.5,4.5,0,0,1,.428-.725.59.59,0,0,1,.434-.285.744.744,0,0,1,.612.315,1.172,1.172,0,0,1,.244.749,3.273,3.273,0,0,1-.03.44c-.016.147-.034.269-.053.369s-.05.22-.089.374-.083.291-.131.422Z" transform="translate(-455.936 -191.91)" fill="#009788"/>
        <path id="path1617" d="M455.159,198.962a5.037,5.037,0,0,1-.184.874q-.172.63-.458,1.378a8.853,8.853,0,0,1-.493,1.135,1.947,1.947,0,0,1-.469.582,2.428,2.428,0,0,1-.82.368,9.247,9.247,0,0,1-.909.22,3.485,3.485,0,0,1-.428.06c-.059-.008-.1-.032-.107-.071a.2.2,0,0,1,.054-.161,1.586,1.586,0,0,1,.493-.4q.4-.244.921-.612a3.816,3.816,0,0,0,.749-.648,4.835,4.835,0,0,0,.505-.832q.279-.552.505-1.111t.327-.767q.1-.208.214-.2c.067.012.1.071.1.178Z" transform="translate(-443.346 -193.093)" fill="#009788"/>
        <path id="path1619" d="M426.47,187.768a2.244,2.244,0,0,1-.113.434,5.987,5.987,0,0,1-.249.582q-.172.374-.208.428-.143.226-.25.226l-.143-.1a.174.174,0,0,0-.113-.053,1.433,1.433,0,0,0-.594.184,3.742,3.742,0,0,0-.8.588,4.662,4.662,0,0,0-.677.749,1.119,1.119,0,0,0-.244.475.378.378,0,0,0,.125.3,1.645,1.645,0,0,0,.38.19,1.574,1.574,0,0,1,.368.178.92.92,0,0,1,.291.8,6.815,6.815,0,0,1-.315,1.9,7.008,7.008,0,0,1-.814,1.848,6.62,6.62,0,0,1-.612.725,4.092,4.092,0,0,1-.743.63,3.134,3.134,0,0,1-1.765.505,2.105,2.105,0,0,1-1.723-.766,2.327,2.327,0,0,1-.368-.808,3.547,3.547,0,0,1-.1-.814,6.374,6.374,0,0,1,.071-.957,6.2,6.2,0,0,1,.22-.939,11.614,11.614,0,0,1,.559-1.479q.333-.713.541-1.153l.416-.891q.071-.149.148-.291t.149-.143q.089,0,.089.143a.453.453,0,0,1-.03.214q-.1.255-.166.434t-.214.505q-.143.327-.309.713t-.273.63a6.645,6.645,0,0,0-.523,2.086A1.425,1.425,0,0,0,419,196a2.257,2.257,0,0,0,1.468.428,3.326,3.326,0,0,0,1.515-.368,3.123,3.123,0,0,0,.909-.666,3.773,3.773,0,0,0,.558-.737,1.31,1.31,0,0,0,.19-.618q0-.172-.256-.249a3.749,3.749,0,0,0-.362-.107,1.335,1.335,0,0,1-.256-.1,1.046,1.046,0,0,1-.416-.333.932.932,0,0,1-.142-.547,3.635,3.635,0,0,1,.339-1.337,6.894,6.894,0,0,1,.969-1.6,10.558,10.558,0,0,1,.927-1.04q.226-.208.57-.469a7.2,7.2,0,0,1,.677-.452,2.039,2.039,0,0,1,.636-.267.13.13,0,0,1,.131.083.221.221,0,0,1,.018.148Z" transform="translate(-417.801 -184.513)" fill="#009788"/>
      </g>
      <g id="g1660" transform="translate(15.232 2.029)">
        <path id="path1621" d="M412.93,191.625q-.024.647-.036,1.165a8.51,8.51,0,0,1-.048.867,5.171,5.171,0,0,1-.3,1.361,4.469,4.469,0,0,1-.35.784,2.065,2.065,0,0,1-.208.285q-.095.089-.149.06a.09.09,0,0,1-.036-.1q0-.018.107-.541a6.633,6.633,0,0,0,.131-1.01q.03-.493.012-1.384a10.221,10.221,0,0,1,.042-1.373,4.053,4.053,0,0,1,.119-.571q.083-.3.19-.576t.232-.541q.119-.255.22-.451.083-.125.143-.1a.084.084,0,0,1,.053.1,1.593,1.593,0,0,0-.03.184q-.012.137-.03.333t-.024.41q-.012.22-.024.434t-.012.386c0,.119-.006.212-.006.279Z" transform="translate(-394.449 -188.039)" fill="#009788"/>
        <path id="path1623" d="M386.145,194.813q0,.321.006.475a2.164,2.164,0,0,0,.1.571.99.99,0,0,0,.357.451,1.046,1.046,0,0,0,.642.178,1.22,1.22,0,0,0,.873-.3,2.979,2.979,0,0,1,.576-.463.362.362,0,0,1,.226-.012,1.042,1.042,0,0,0,.273.012q.16,0,.3-.363a1.216,1.216,0,0,1,.2-.4.168.168,0,0,1,.125-.012,1.083,1.083,0,0,0,.285.071q.155,0,.268-.208a2.24,2.24,0,0,0,.154-.374q.089-.255.143-.255.071,0,.071.16a2.218,2.218,0,0,1-.35,1.177q-.362.57-.737.57-.244.345-.279.38a.634.634,0,0,1-.434.279,1.891,1.891,0,0,0-.327-.036.646.646,0,0,0-.279.071,2.72,2.72,0,0,0-.677.731,1.39,1.39,0,0,1-1.082.648.982.982,0,0,1-.927-.558,3.068,3.068,0,0,1-.273-1.367,6.1,6.1,0,0,1,.327-1.07q.172-.428.339-.428.036,0,.1.071Z" transform="translate(-374.29 -191.613)" fill="#009788"/>
        <path id="path1625" d="M377.267,186.064q-.012.351-.042.856t-.03.707a6,6,0,0,1-.149,1.177q-.113.469-.208.749t-.232.63a4.271,4.271,0,0,1-.41.76,3.535,3.535,0,0,1-.529.648,1.3,1.3,0,0,1-.879.351.966.966,0,0,1-.44-.125,1.891,1.891,0,0,1-.344-.3c-.1-.079-.154-.131-.178-.155a.323.323,0,0,1-.125-.238.365.365,0,0,1,.089-.208l.2-.256c.036-.047.083-.119.142-.214a1.448,1.448,0,0,0,.155-.38,3.571,3.571,0,0,0,.113-.618q.036-.386.047-.66l.018-.553q.006-.285,0-.6a7.3,7.3,0,0,1,.285-1.783q.184-.648.594-1.753a.324.324,0,0,1,.053-.1.082.082,0,0,1,.048-.03q.059.006.053.339-.012.16-.036.517t-.036.464l-.2,2.317a8.676,8.676,0,0,1-.1.951,6.736,6.736,0,0,1-.256,1.01,4.488,4.488,0,0,1-.6,1.236q.018.036.143.036l.226.012a1.476,1.476,0,0,0,.975-.368,1.739,1.739,0,0,0,.624-.82,3.178,3.178,0,0,0,.148-.873q.059-1,.1-1.747a10.776,10.776,0,0,1,.113-1.212,7.845,7.845,0,0,1,.243-1q.173-.546.535-1.408.054-.089.1-.071a2.249,2.249,0,0,1-.042.7q-.083.677-.172,2.014Z" transform="translate(-365.382 -183.346)" fill="#009788"/>
        <path id="path1627" d="M359.864,188.8q.1-.178.327-.5a6.08,6.08,0,0,1,.493-.612,5.784,5.784,0,0,1,.547-.535,2.157,2.157,0,0,0,.38-.356.29.29,0,0,0,.089-.178q0-.065-.16-.143t-.125-.226l.356-.8q.154-.273.279-.523.184-.279.362-.262a2.228,2.228,0,0,1,.921.351.64.64,0,0,1,.339.487,1.251,1.251,0,0,1-.315.766,1.951,1.951,0,0,1-.648.606q-.3.16-.505.285t-.333.19a6.269,6.269,0,0,0-.725.5,4.621,4.621,0,0,0-.5.505,1.484,1.484,0,0,0-.309.446.4.4,0,0,1-.475,0Z" transform="translate(-354.825 -184.354)" fill="#009788"/>
        <path id="path1629" d="M344.462,200.646q0-.149-.642-.446t-.654-.737a2.172,2.172,0,0,1,.137-.707,5.21,5.21,0,0,1,.339-.755.254.254,0,0,1,.113-.089.416.416,0,0,1,.148-.03.3.3,0,0,1,.137.03.124.124,0,0,1,.071.089q0,.125.2.25t.4.273a.843.843,0,0,1,.3.333,1.576,1.576,0,0,1,.089.606,4.9,4.9,0,0,1-.155,1.2,8.5,8.5,0,0,1-.558,1.479,5.633,5.633,0,0,1-1.765,2.175,3.655,3.655,0,0,1-.8.392,2.893,2.893,0,0,1-.921.143,2.046,2.046,0,0,1-1.765-.856,3.14,3.14,0,0,1-.523-1.872,5.526,5.526,0,0,1,.214-1.325,12.22,12.22,0,0,1,.446-1.373q.25-.6.428-1.01.054-.095.149-.3t.255-.523q.107-.22.172-.368t.142-.273q.143-.238.214-.232.1.018.054.208a1.972,1.972,0,0,1-.119.38q-.63,1.462-.868,2.044a4.844,4.844,0,0,0-.422,1.64,1.781,1.781,0,0,0,.677,1.569,2.325,2.325,0,0,0,1.3.327,3.605,3.605,0,0,0,2.389-.8,1.911,1.911,0,0,0,.82-1.444Z" transform="translate(-338.615 -193.552)" fill="#009788"/>
      </g>
      <g id="g1666" transform="translate(0 0.797)">
        <path id="path1631" d="M332.081,191.334q-.024.648-.036,1.165a8.453,8.453,0,0,1-.047.868,5.184,5.184,0,0,1-.3,1.361,4.465,4.465,0,0,1-.35.784,2.1,2.1,0,0,1-.208.285q-.1.089-.149.06a.09.09,0,0,1-.036-.1q0-.018.107-.541a6.691,6.691,0,0,0,.131-1.01q.03-.493.012-1.385a10.241,10.241,0,0,1,.042-1.373,4.058,4.058,0,0,1,.119-.57q.083-.3.19-.576t.232-.541q.119-.255.22-.452.083-.125.143-.095a.084.084,0,0,1,.054.095,1.56,1.56,0,0,0-.03.184q-.012.137-.03.333t-.024.41q-.012.22-.024.434t-.012.386q-.006.178-.006.279Z" transform="translate(-317.54 -186.584)" fill="#009788"/>
        <path id="path1684" d="M310.266,222.666q-.078.006-.3.368t-.392.653a3.433,3.433,0,0,0-.44-.493q-.291-.279-.44-.22a2.805,2.805,0,0,0-.452.707,3.238,3.238,0,0,0-.363.784q0,.053.262.267t.392.321a.373.373,0,0,0,.2.113q.285,0,.766-.968a3.959,3.959,0,0,1,.452.4q.262.261.363.262.149,0,.47-.458a1.459,1.459,0,0,0,.333-.8,1.031,1.031,0,0,0-.327-.612.837.837,0,0,0-.529-.321Z" transform="translate(-299.938 -212.109)" fill="#009788"/>
        <path id="path1633" d="M310.78,194.641q-.077-.012-.273.339a1.839,1.839,0,0,1-.321.464,2.532,2.532,0,0,1-.463.273q-.375.2-.529.279a2.287,2.287,0,0,0-.588.5,6.683,6.683,0,0,0-.553,1.052,9.57,9.57,0,0,1-.416.891,3.328,3.328,0,0,1-.713.642q.024-.018-.44.3-.594.374-.826.546l-.3.226q-.2.143-.178.226.059.131.291.107a3.818,3.818,0,0,0,.743-.1,3.99,3.99,0,0,0,.731-.184,1.767,1.767,0,0,0,.874-.874q.178-.4.47-1.153a3.62,3.62,0,0,1,.35-.642,1.317,1.317,0,0,1,.22-.2,8.712,8.712,0,0,1,.945-.5q.553-.279,1-1.866Q310.864,194.665,310.78,194.641Z" transform="translate(-297.873 -190.729)" fill="#009788"/>
        <path id="path1635" d="M310.182,185.148q-.024.648-.036,1.165a8.506,8.506,0,0,1-.047.867,5.183,5.183,0,0,1-.3,1.361,4.442,4.442,0,0,1-.351.784,2.065,2.065,0,0,1-.208.285q-.1.089-.148.059a.09.09,0,0,1-.036-.1q0-.018.107-.541a6.683,6.683,0,0,0,.131-1.01q.029-.493.012-1.384a10.26,10.26,0,0,1,.042-1.373,4.1,4.1,0,0,1,.119-.571q.083-.3.19-.576t.232-.541q.119-.256.22-.452.083-.124.142-.1a.084.084,0,0,1,.054.1,1.532,1.532,0,0,0-.03.184q-.012.137-.03.333t-.024.41l-.024.434q-.006.208-.012.386t-.006.279Z" transform="translate(-300.833 -181.865)" fill="#009788"/>
        <path id="path1637" d="M279.1,181.147a.8.8,0,0,1-.03.392,2.421,2.421,0,0,1-.2.481,1.829,1.829,0,0,1-.369.481.41.41,0,0,1-.238.143.681.681,0,0,1-.249-.155q-.19-.154-.345-.285t-.267-.238a.287.287,0,0,1-.113-.178q.119-.238.172-.363.178-.4.3-.636t.41-.683q.16.131.392.315a2.267,2.267,0,0,1,.368.345.788.788,0,0,1,.166.38Zm2.692-.873a8.869,8.869,0,0,1-1.622,4.813,4.275,4.275,0,0,1-3.47,1.973,2.355,2.355,0,0,1-1.67-.7,2.619,2.619,0,0,1-.648-1.795,8.065,8.065,0,0,1,1.194-3.945q.232-.428.273-.273a.506.506,0,0,1-.006.315,6.465,6.465,0,0,0-.808,2.709,1.644,1.644,0,0,0,.606,1.3,2.584,2.584,0,0,0,1.521.481,4.425,4.425,0,0,0,2.228-.612,3.688,3.688,0,0,0,1.479-1.884,3.043,3.043,0,0,0,.161-1.087q0-.256-.006-.654t0-.564a4.472,4.472,0,0,1,.232-1.082,8.661,8.661,0,0,1,.321-.862q.131-.267.22-.267.065,0,.053.137t-.024.529q-.018.392-.036,1.462Z" transform="translate(-274.379 -178.147)" fill="#009788"/>
      </g>
    </g>
    <g id="layer1-7" transform="translate(1071 288.907)">
      <g id="g3993" transform="translate(0 0)">
        <g id="g3995">
          <path id="path3997" d="M417.073,84.3s8.964,7.01,2.375,17.084C425.653,97.595,426.189,87.166,417.073,84.3Z" transform="translate(-400.026 -81.564)" fill="#009788"/>
          <path id="path3999" d="M385.471,74.5c-1.427,1.609-3.879.009-3.036-1.743,1.475,2.643,3.036.507,3.036.507s1.561,2.136,3.036-.507C389.35,74.505,386.9,76.1,385.471,74.5Z" transform="translate(-373.47 -72.753)" fill="#009788"/>
          <path id="path4001" d="M370.677,103.323l-1.025-1.341a9.338,9.338,0,0,1-5.592-.306,11.128,11.128,0,0,0,4.6-.728s-5.9-3.179-5.784-9.653c.345-6.55,3.831-8.542,3.831-8.542s-6.205,9.04,2.911,16.6l-.4-9.347V83.135c.517-.124,1.465-1.216,1.465-1.216s.948,1.092,1.465,1.216V90l-.4,9.347c9.116-7.556,2.911-16.6,2.911-16.6s3.486,1.992,3.831,8.542c.115,6.474-5.784,9.653-5.784,9.653a11.136,11.136,0,0,0,4.6.728,9.336,9.336,0,0,1-5.593.306l-1.025,1.341Z" transform="translate(-358.676 -79.745)" fill="#009788"/>
          <path id="path4003" d="M352.137,84.3s-8.963,7.01-2.375,17.084C343.557,97.595,343.02,87.166,352.137,84.3Z" transform="translate(-345.183 -81.564)" fill="#009788"/>
        </g>
      </g>
    </g>
  </g>
</svg>
