<svg id="people_outline-24px" xmlns="http://www.w3.org/2000/svg" width="24" height="24" viewBox="0 0 24 24">
  <path id="Path_2162" data-name="Path 2162" d="M0,0H24V24H0Z" fill="none"/>
  <g id="_29-auction" data-name="29-auction" transform="translate(2 1.53)">
    <path id="Path_7193" data-name="Path 7193" d="M25.647,15.3l-7.4-7.4c.148-.073.285-.135.4-.187l.2.2a.835.835,0,0,0,1.181,0l1.772-1.772a.835.835,0,0,0,0-1.181L17.084.245a.835.835,0,0,0-1.181,0L14.132,2.017a.835.835,0,0,0,0,1.181l.2.2A7.242,7.242,0,0,1,12.95,5.56a7.252,7.252,0,0,1-2.159,1.385l-.2-.2a.835.835,0,0,0-1.181,0L7.635,8.513a.835.835,0,0,0,0,1.181l4.724,4.725a.835.835,0,0,0,1.181,0l1.772-1.772a.835.835,0,0,0,0-1.181l-.2-.2c.052-.12.114-.256.188-.4l7.4,7.4a.835.835,0,0,0,1.181,0l1.773-1.773A.835.835,0,0,0,25.647,15.3ZM16.494,2.017,20.037,5.56l-.59.59L15.9,2.607ZM12.95,12.647,9.407,9.1l.59-.59,3.543,3.543Zm-.9-4.447a8.3,8.3,0,0,0,2.085-1.459A8.288,8.288,0,0,0,15.59,4.657L17.4,6.464a8.3,8.3,0,0,0-2.085,1.459,8.307,8.307,0,0,0-1.459,2.085Zm11.237,8.286-7.07-7.073c.089-.107.182-.211.28-.309s.2-.191.31-.28l7.073,7.07Z" transform="translate(-5.892 -0.001)" fill="#009788"/>
    <path id="Path_7194" data-name="Path 7194" d="M9.734,76.746a.811.811,0,0,0-.811-.811H2.434a.811.811,0,0,0-.811.811v1.636H0V80H11.357V78.382H9.734Zm-6.49.811H8.112v.811H3.245Z" transform="translate(0 -60.004)" fill="#009788"/>
  </g>
</svg>
