<svg xmlns="http://www.w3.org/2000/svg" width="24" height="20" viewBox="0 0 24 20">
  <path id="reply" d="M23.25,22a.75.75,0,0,1-.658-.391l-.021-.038A12.754,12.754,0,0,0,11.418,15H10v4.25a.75.75,0,0,1-1.272.538l-8.5-8.25a.749.749,0,0,1,0-1.076l8.5-8.25A.75.75,0,0,1,10,2.75V7A14.267,14.267,0,0,1,24,21.25a.75.75,0,0,1-.564.727A.74.74,0,0,1,23.25,22Zm-14-8.5h2.168a14.258,14.258,0,0,1,10.764,4.911A12.773,12.773,0,0,0,9.75,8.5h-.5a.75.75,0,0,1-.75-.75V4.523L1.827,11,8.5,17.477V14.25a.75.75,0,0,1,.75-.75Z" transform="translate(0 -2)" fill="#009788"/>
</svg>
